<?xml version="1.0" standalone="no"?>
<!DOCTYPE svg PUBLIC "-//W3C//DTD SVG 1.1//EN" "http://www.w3.org/Graphics/SVG/1.1/DTD/svg11.dtd" >
<svg xmlns="http://www.w3.org/2000/svg">
<metadata>Generated by IcoMoon</metadata>
<defs>
<font id="icomoon" horiz-adv-x="1024">
<font-face units-per-em="1024" ascent="960" descent="-64" />
<missing-glyph horiz-adv-x="1024" />
<glyph unicode="&#x20;" horiz-adv-x="512" d="" />
<glyph unicode="&#xe900;" glyph-name="1" d="M459.508 960c-253.367 0-459.508-206.14-459.508-459.508 0-253.365 206.14-459.824 459.508-459.824 108.177 0 207.736 37.97 286.236 100.833l191.462-191.14c20.101-19.149 52.014-18.831 71.475 0.635 19.789 19.784 20.106 51.379 0.957 71.48l-191.457 191.462c62.863 78.817 100.833 178.376 100.833 286.553 0 253.367-206.459 459.508-459.507 459.508zM459.508 857.887c197.844 0 357.393-159.232 357.393-357.395 0-197.844-159.232-357.716-357.393-357.716-197.843 0-357.395 159.872-357.395 357.716 0 198.163 159.232 357.395 357.395 357.395z" />
<glyph unicode="&#xe901;" glyph-name="2" horiz-adv-x="983" d="M978.829 262.554c-10.858 36.11-40.546 65.577-75.993 75.104-9.527 2.658-19.276 3.768-28.803 3.326-24.592-0.889-85.299-12.407-138.252-28.582l186.552 275.172c15.95 23.485 21.713 52.73 16.171 80.646-5.538 27.694-21.488 51.179-44.753 66.466-10.633 6.868-21.934 11.521-33.677 14.18l18.17 26.808c17.281 25.479 23.704 57.383 17.502 87.736-5.984 30.131-23.265 55.61-48.521 72.227-50.295 33.012-118.755 19.94-153.76-28.581-7.533 12.186-17.281 23.042-29.245 31.461-24.814 17.946-56.717 25.036-87.294 19.718-29.909-5.317-55.607-21.712-72.004-46.084l-17.723-25.922c-5.984 7.755-13.296 14.844-21.934 20.605-43.647 29.467-103.024 18.168-132.491-25.479l-272.513-402.124c-31.904-54.944-51.401-107.233-57.826-155.75-5.982-45.421-0.886-88.625 15.287-128.725 31.682-78.651 100.364-132.489 156.639-170.598 110.556-74.883 247.035-87.294 356.705-32.567 12.628 5.538 45.638 19.939 81.089 35.226 34.562 15.065 66.687 28.582 94.826 40.767 15.507 6.648 29.688 12.628 41.873 17.945 45.863 19.718 92.164 37.446 138.248 52.511 17.060 5.538 21.934 6.869 23.044 7.090 19.939 4.653 37.442 15.065 50.958 30.13 20.824 23.708 27.251 55.39 17.723 87.294zM911.254 219.57c-4.211-4.874-9.97-8.196-16.617-9.748-3.543-0.885-9.748-2.658-28.578-8.638-47.858-15.733-96.158-34.12-143.79-54.505-12.186-5.317-26.366-11.297-41.873-17.945-28.361-12.186-60.264-25.924-95.048-40.767-36.336-15.729-70.013-30.351-82.42-35.889l-1.327-0.668c-88.179-44.311-199.401-33.673-290.238 27.697-48.521 32.788-107.233 78.43-132.268 140.464-25.479 63.365-13.072 137.142 37.886 225.321l270.74 399.243c8.862 13.293 27.029 16.617 40.325 7.755 13.292-9.084 16.835-27.030 7.975-40.323l-101.473-149.771c-0.221-0.443-0.443-0.886-0.886-1.329-0.222-0.443-0.665-1.108-0.886-1.551s-0.443-0.886-0.664-1.33c-0.222-0.443-0.443-1.108-0.665-1.551s-0.443-1.108-0.443-1.551c-0.222-0.443-0.443-1.108-0.665-1.551s-0.222-1.108-0.443-1.551c-0.221-0.443-0.221-1.108-0.443-1.551s-0.222-1.108-0.222-1.551c0-0.443-0.222-1.108-0.222-1.551s0-1.108 0-1.551c0-0.443 0-1.108 0-1.551s0-1.108 0-1.551c0-0.443 0-1.108 0-1.551s0.222-1.108 0.222-1.551c0-0.443 0.222-1.108 0.222-1.551s0.222-1.108 0.443-1.551c0.222-0.443 0.222-1.108 0.443-1.551s0.222-0.886 0.443-1.551c0.222-0.443 0.443-1.108 0.443-1.551 0.222-0.443 0.443-0.886 0.665-1.329s0.443-1.108 0.664-1.551c0.222-0.443 0.443-0.886 0.665-1.33s0.443-0.886 0.886-1.551c0.222-0.443 0.664-0.886 0.886-1.33s0.665-0.886 0.886-1.329c0.443-0.443 0.665-0.886 1.108-1.108 0.443-0.443 0.664-0.886 1.108-1.329s0.886-0.665 1.329-1.108c0.443-0.443 0.886-0.664 1.33-1.108s0.886-0.665 1.329-1.108c0.443-0.443 0.886-0.665 1.33-1.108 0.886-0.665 1.994-1.33 2.88-1.773 0.443-0.221 0.886-0.443 1.329-0.664 0.665-0.222 1.108-0.665 1.772-0.886s1.108-0.443 1.772-0.665c0.443-0.222 0.886-0.222 1.33-0.443 0.665-0.222 1.329-0.443 1.994-0.443 0.443 0 0.665-0.222 1.108-0.222 0.664-0.222 1.329-0.222 2.216-0.222 0.443 0 0.664-0.222 1.108-0.222 0.665 0 1.33 0 1.994 0 0.443 0 0.665 0 1.108 0 0.665 0 1.329 0 1.994 0 0.443 0 0.886 0 1.329 0 0.665 0 1.108 0.222 1.773 0.222 0.443 0 0.886 0.222 1.329 0.222 0.665 0 1.108 0.222 1.772 0.443 0.443 0.222 0.886 0.222 1.33 0.443s1.108 0.443 1.551 0.443c0.443 0.222 0.886 0.222 1.551 0.443 0.443 0.222 0.886 0.443 1.551 0.665 0.443 0.222 0.886 0.443 1.551 0.665 0.443 0.222 0.886 0.443 1.33 0.886 0.443 0.222 0.886 0.443 1.329 0.886 0.443 0.222 0.886 0.665 1.33 0.886s0.886 0.665 1.329 0.886c0.443 0.222 0.886 0.665 1.108 1.108 0.443 0.443 0.886 0.664 1.33 1.108s0.665 0.886 1.108 1.108c0.443 0.443 0.886 0.886 1.108 1.329 0.443 0.443 0.665 0.886 0.886 1.33 0.443 0.443 0.664 0.886 1.108 1.329l170.599 250.357c6.423 9.527 16.613 15.952 28.578 17.946 13.074 2.216 26.366-0.664 36.778-8.197 19.497-13.958 23.929-42.317 9.97-62.922l-167.715-248.141c-0.442-0.443-0.664-1.108-0.885-1.551-0.225-0.443-0.668-0.886-0.889-1.329s-0.442-1.108-0.885-1.772c-0.221-0.443-0.442-0.886-0.664-1.33-0.225-0.665-0.446-1.329-0.668-1.772s-0.221-0.886-0.442-1.108-0.442-1.329-0.442-2.216c0-0.443-0.221-0.664-0.221-1.108-0.221-0.665-0.221-1.551-0.442-2.216 0-0.222 0-0.665-0.221-0.886 0-0.886 0-1.551-0.225-2.437 0-0.222 0-0.443 0-0.886 0-0.886 0-1.551 0.225-2.437 0-0.222 0-0.443 0-0.665 0-0.886 0.221-1.774 0.442-2.659 0-0.221 0-0.442 0-0.442 0.221-0.889 0.442-1.774 0.664-2.658 0-0.221 0-0.221 0-0.442 0.221-0.889 0.442-1.774 0.885-2.437 0-0.225 0.221-0.446 0.221-0.446 0.225-0.885 0.668-1.548 1.11-2.437 0-0.221 0.221-0.442 0.221-0.442 0.442-0.885 0.885-1.548 1.331-2.437 0-0.221 0.221-0.221 0.221-0.442 0.442-0.664 1.106-1.552 1.548-2.216 0-0.221 0.221-0.221 0.221-0.442 0.668-0.664 1.11-1.331 1.774-1.995 0.221-0.221 0.221-0.221 0.442-0.442 1.552-1.552 3.326-3.101 5.095-4.211 0.446-0.221 0.889-0.664 1.552-0.885 0.442-0.221 0.885-0.664 1.331-0.889 0.442-0.221 1.106-0.442 1.548-0.664s0.889-0.442 1.331-0.664c0.664-0.221 1.106-0.442 1.769-0.664 0.446-0.221 0.889-0.446 1.331-0.446 0.664-0.221 1.106-0.221 1.774-0.442 0.442 0 0.885-0.221 1.327-0.442 0.668-0.221 1.331-0.221 1.995-0.221 0.442 0 0.885-0.221 1.331-0.221 0.664 0 1.327 0 1.991 0 0.446 0 0.889 0 1.331 0 0.664 0 1.331 0 1.995 0 0.442 0 0.885 0 1.327 0 0.668 0 1.331 0.221 1.774 0.221s0.885 0.221 1.331 0.221c0.664 0.221 1.106 0.221 1.769 0.442 0.442 0 0.889 0.221 1.331 0.221 0.664 0.221 1.106 0.446 1.548 0.668 0.446 0.221 0.889 0.221 1.331 0.442s1.106 0.442 1.552 0.664c0.442 0.221 0.885 0.442 1.327 0.664s0.889 0.446 1.331 0.889c0.442 0.221 0.885 0.442 1.327 0.885 0.442 0.221 0.889 0.664 1.331 0.885 0.442 0.225 0.885 0.668 1.327 0.889 0.446 0.442 0.889 0.664 1.11 1.106 0.442 0.442 0.885 0.668 1.327 1.11 0.446 0.442 0.668 0.885 1.11 1.327s0.664 0.889 1.106 1.331c0.442 0.442 0.668 0.885 1.11 1.327 0.442 0.446 0.664 0.889 1.106 1.331l223.994 329.895c14.402 21.048 43.201 27.030 64.692 13.072 10.191-6.647 17.281-17.281 19.718-29.689 2.658-13.072 0-26.586-7.533-37.443l-223.99-330.784c-0.446-0.442-0.668-1.106-0.889-1.548s-0.664-0.889-0.885-1.331c-0.221-0.442-0.442-1.106-0.664-1.548-0.221-0.446-0.446-0.889-0.668-1.331s-0.442-1.106-0.664-1.774c-0.221-0.442-0.442-0.885-0.442-1.327-0.221-0.664-0.221-1.331-0.442-1.774 0-0.442-0.221-0.885-0.221-1.327-0.221-0.668-0.221-1.331-0.221-1.995 0-0.442-0.225-0.889-0.225-1.11 0-0.664 0-1.327 0-1.995 0-0.442 0-0.664 0-1.106 0-0.664 0-1.331 0-2.216 0-0.442 0-0.664 0-1.106 0-0.668 0.225-1.552 0.225-2.216 0-0.221 0-0.668 0.221-0.889 0.221-0.664 0.442-1.548 0.442-2.216 0-0.221 0.221-0.664 0.221-0.885 0.221-0.885 0.442-1.552 0.885-2.437 0-0.221 0.221-0.442 0.221-0.664 0.446-0.889 0.668-1.552 1.11-2.437 0-0.221 0.221-0.221 0.221-0.442 0.442-0.889 0.885-1.774 1.552-2.437 0 0 0-0.221 0.221-0.221 0.664-0.889 1.106-1.774 1.769-2.437 0 0 0 0 0-0.225 1.331-1.769 2.884-3.322 4.653-4.649 0.889-0.668 1.774-1.331 2.658-1.995 0.446-0.221 1.11-0.664 1.552-0.889 0.442-0.221 0.885-0.664 1.331-0.885 0.442-0.221 1.106-0.442 1.548-0.885 0.442-0.221 0.889-0.442 1.331-0.668 0.664-0.221 1.327-0.442 1.769-0.664 0.446-0.221 0.889-0.221 1.331-0.442 0.664-0.221 1.331-0.442 1.995-0.442 0.442 0 0.664-0.221 1.106-0.221 0.668-0.221 1.331-0.221 2.216-0.221 0.442 0 0.664-0.221 1.11-0.221 0.664 0 1.327 0 2.216 0 0.442 0 0.664 0 1.106 0 0.664 0 1.552 0 2.216 0 0.221 0 0.664 0 0.885 0 0.664 0 1.552 0.221 2.216 0.221 0.221 0 0.664 0 0.885 0.221 0.668 0.221 1.552 0.221 2.216 0.442 0.221 0 0.668 0.221 0.889 0.221 0.664 0.221 1.327 0.442 2.216 0.664 0.221 0.221 0.664 0.221 0.885 0.221 0.664 0.221 1.331 0.668 1.995 0.889 0.221 0.221 0.664 0.221 0.885 0.442 0.664 0.442 1.331 0.664 1.995 1.106 0.221 0.221 0.664 0.221 0.885 0.446 0.668 0.442 1.11 0.885 1.774 1.327 0.221 0.221 0.664 0.442 0.885 0.664 0.446 0.446 1.11 0.889 1.552 1.331 0.221 0.221 0.664 0.664 0.885 0.885 0.446 0.442 0.889 0.889 1.331 1.552 0.221 0.442 0.664 0.664 0.885 1.106 0.446 0.442 0.668 0.889 1.11 1.552 0.221 0.442 0.664 0.885 0.885 1.327l153.76 226.875c12.186 14.18 33.456 17.503 49.406 7.090 8.2-5.317 13.959-13.736 15.954-23.928 2.216-10.413 0-21.491-5.984-30.353l-220.668-325.906c-11.964-17.949-10.412-40.989 3.768-57.164 13.955-16.171 36.336-20.824 55.828-11.518l0.446 0.221c46.969 23.040 144.675 42.979 169.931 44.089 2.879 0.221 5.984-0.221 9.085-1.11 13.513-3.543 25.477-15.729 29.688-29.909 1.552-7.090 2.437-16.617-4.432-24.371z" />
<glyph unicode="&#xe902;" glyph-name="3" d="M227.556 846.222c0-62.838-50.94-113.778-113.778-113.778s-113.778 50.94-113.778 113.778c0 62.838 50.94 113.778 113.778 113.778s113.778-50.94 113.778-113.778zM227.556 448c0-62.839-50.94-113.778-113.778-113.778s-113.778 50.938-113.778 113.778c0 62.838 50.94 113.778 113.778 113.778s113.778-50.94 113.778-113.778zM113.778-64c62.838 0 113.778 50.938 113.778 113.778s-50.94 113.778-113.778 113.778c-62.838 0-113.778-50.938-113.778-113.778s50.94-113.778 113.778-113.778zM625.778 846.222c0-62.838-50.938-113.778-113.778-113.778-62.838 0-113.778 50.94-113.778 113.778s50.94 113.778 113.778 113.778c62.839 0 113.778-50.94 113.778-113.778zM512 334.222c62.839 0 113.778 50.938 113.778 113.778 0 62.838-50.938 113.778-113.778 113.778-62.838 0-113.778-50.94-113.778-113.778s50.94-113.778 113.778-113.778zM625.778 49.778c0-62.839-50.938-113.778-113.778-113.778-62.838 0-113.778 50.938-113.778 113.778s50.94 113.778 113.778 113.778c62.839 0 113.778-50.938 113.778-113.778zM910.222 732.444c62.839 0 113.778 50.94 113.778 113.778s-50.938 113.778-113.778 113.778c-62.839 0-113.778-50.94-113.778-113.778s50.938-113.778 113.778-113.778zM1024 448c0-62.839-50.938-113.778-113.778-113.778s-113.778 50.938-113.778 113.778c0 62.838 50.938 113.778 113.778 113.778s113.778-50.94 113.778-113.778zM910.222-64c62.839 0 113.778 50.938 113.778 113.778s-50.938 113.778-113.778 113.778c-62.839 0-113.778-50.938-113.778-113.778s50.938-113.778 113.778-113.778z" />
<glyph unicode="&#xe903;" glyph-name="4" d="M301.761 380.799c-30.081 29.76-78.721 29.76-108.481 0-4.48-4.798-8-10.559-10.88-16.32l-28.48 20.161v140.159c0 42.56-34.24 76.8-76.8 76.8s-76.8-34.24-76.8-76.8v-232c0-22.399 9.6-43.839 26.88-58.561l228.8-207.038v-65.6c0-14.081 11.52-25.6 25.6-25.6 14.079 0 25.6 11.519 25.6 25.6v76.8c0 7.361-3.201 14.079-8.321 18.88l-238.399 215.681c-5.76 4.801-9.28 12.159-9.28 19.839v232c0 14.081 11.52 25.6 25.6 25.6s25.6-11.519 25.6-25.6v-153.6c0-8.321 4.16-16.001 10.88-20.799l61.12-43.201c2.88-13.441 9.6-25.6 19.2-35.521l98.88-93.439c10.241-9.599 26.561-9.28 36.16 0.96s9.28 26.56-0.96 36.159l-98.56 93.12c-4.8 4.801-7.68 11.521-7.36 18.242 0 6.72 2.88 13.441 7.68 18.239 4.8 4.801 11.52 7.361 18.24 7.361s13.44-2.879 17.92-7.999l136.32-129.6c4.801-4.801 7.361-11.2 7.361-17.92v-235.201c0-14.081 11.519-25.6 25.597-25.6 14.081 0 25.6 11.519 25.6 25.6v234.879c0 20.48-8.318 40.319-23.040 54.72l-135.677 129.6zM947.2 601.6c-42.56 0-76.8-34.559-76.8-76.8v-140.481l-28.479-20.158c-2.882 5.761-6.401 11.519-10.881 16.32-29.76 29.76-78.081 30.079-108.161 0.319l-137.28-130.238c-14.4-14.4-22.399-33.921-22.399-54.082v-234.879c0-14.081 11.519-25.6 25.6-25.6s25.6 11.519 25.6 25.6v234.879c0 6.401 2.56 12.8 7.039 17.601l136.961 130.56c9.918 9.918 25.919 9.921 35.84 0.319 9.918-9.918 10.24-25.919 0.638-35.84l-98.877-93.439c-4.801-4.801-7.68-11.2-8.002-17.92-0.319-6.72 2.241-13.441 7.039-18.242 4.801-4.798 11.203-7.68 17.923-7.999 6.717-0.319 13.438 2.241 18.239 7.039l99.521 94.079c9.277 9.921 15.679 22.080 18.88 35.202l61.118 43.198c6.72 4.801 10.881 12.481 10.881 20.802v153.6c0 14.079 11.521 25.6 25.6 25.6s25.6-11.521 25.6-25.6v-232c0-8.002-3.841-15.679-9.921-20.48l-237.439-215.040c-5.439-4.801-8.321-11.84-8.321-18.88v-76.8c0-14.081 11.521-25.6 25.6-25.6 14.081 0 25.6 11.519 25.6 25.6v65.6l228.481 206.719c17.601 14.719 27.841 36.159 27.519 59.199v231.041c-0.319 42.241-34.559 76.8-77.119 76.8zM793.6 678.401c0 113.92-68.479 216.64-173.758 260.16-105.282 43.52-226.243 19.52-306.881-61.12-80.64-80.64-104.64-201.6-61.12-306.88s146.241-173.761 260.159-173.761c155.519 0.322 281.281 126.081 281.6 281.601zM512 448c-93.12 0-177.281 56.001-212.799 142.081-35.521 86.080-16.001 185.28 49.919 251.2 65.922 65.92 165.121 85.76 251.202 49.92 86.080-35.52 142.079-119.68 142.079-212.8 0-127.039-103.36-230.401-230.4-230.401zM486.4 755.2h102.4c14.079 0 25.6 11.52 25.6 25.6s-11.521 25.6-25.6 25.6h-51.2v25.6c0 14.080-11.519 25.6-25.6 25.6s-25.6-11.52-25.6-25.6v-25.6c-42.56 0-76.8-34.24-76.8-76.8s34.24-76.8 76.8-76.8h51.2c14.079 0 25.6-11.521 25.6-25.6s-11.521-25.6-25.6-25.6h-102.4c-14.081 0-25.6-11.521-25.6-25.6s11.519-25.6 25.6-25.6h51.2v-25.6c0-14.079 11.519-25.6 25.6-25.6s25.6 11.521 25.6 25.6v25.6c42.56 0 76.8 34.24 76.8 76.8s-34.24 76.8-76.8 76.8h-51.2c-14.081 0-25.6 11.52-25.6 25.6s11.519 25.6 25.6 25.6z" />
<glyph unicode="&#xe904;" glyph-name="5" horiz-adv-x="1317" d="M1168.837 574.344l-164.062 88.714c4.825 18.187 4.084 37.488-2.226 55.305-14.105 38.974-51.595 64.585-93.166 63.1-19.673 25.24-75.349 97.991-106.9 140.306-17.818 24.127-46.027 38.231-76.092 38.231h-97.248c-4.456 0-8.537-1.485-12.25-3.712l-40.457-27.096-50.852 4.083c-38.602 2.969-76.835-12.249-102.447-41.572l-59.389-67.926-113.579 41.572c-40.459 14.847-85.371-1.485-107.271-38.231-21.9-37.118-14.105-84.257 18.188-112.467-22.642-15.961-36.375-41.572-37.489-69.039s10.764-54.193 31.55-71.636c-19.301-15.963-30.808-39.717-31.179-64.957s10.022-49.369 28.952-66.071c-2.969-2.97-5.568-6.311-7.795-9.649l-2.969-1.486c-0.371 0-0.371 0-0.743-0.372-119.891-59.389-173.34-201.55-121.747-324.781 51.223-123.603 190.044-185.59 316.243-142.16l455.066 156.637c2.226-2.598 5.196-4.456 8.166-5.568l132.511-51.595c138.822-54.19 295.831 8.909 358.558 144.018 62.73 134.738 9.652 295.459-121.373 366.352zM547.111 839.738c1.855 11.878 8.909 22.271 18.929 28.952l69.781 46.769h90.197c15.963 0 30.808-7.424 40.088-20.415 23.385-31.55 57.903-76.834 71.639-94.65 8.166-10.764 15.588-20.415 22.271-28.952l-106.528-27.096-66.071 54.563c-5.196 4.454-11.878 5.939-18.558 4.825l-70.524-14.105c-16.331-3.341-33.406 3.341-43.429 16.703-7.051 9.279-9.649 21.529-7.794 33.406zM177.789 797.052c4.083 11.136 12.249 20.044 23.013 25.24 10.764 4.825 23.013 5.568 34.148 1.485l208.974-76.463c23.014-8.537 34.889-34.149 26.352-57.162s-33.777-34.889-56.788-26.724l-209.346 76.462c-11.136 4.083-20.044 12.249-25.24 23.013-4.454 10.764-5.197 23.013-1.114 34.148zM171.107 657.118c8.537 23.013 34.149 34.891 57.162 26.353l208.973-76.462c23.014-8.166 35.264-33.777 27.098-56.791-8.169-23.014-33.777-35.261-56.791-27.095l-0.743 0.369c-0.372 0.372-1.115 0.372-1.483 0.372l-207.861 76.092c-23.013 8.537-34.891 34.149-26.354 57.163zM198.575 467.076c-19.302 5.936-31.922 24.869-29.323 44.913 2.598 20.041 18.93 35.632 39.345 36.747l182.99-67.186c0.743-0.369 1.115-0.369 1.858-0.74l24.497-9.28c8.537-3.713 14.848-10.392 18.189-19.301 3.71-8.909 3.71-18.929-0.372-27.838-7.054-14.848-23.757-22.642-39.717-17.818l-197.467 60.504zM369.687 330.108c-3.341-1.483-6.679-2.226-10.392-1.855l-148.843 16.703c-17.816 1.855-31.921 15.591-34.891 33.034-2.97 17.446 5.939 34.892 21.9 43.058l172.598-52.335 0.372-0.372c2.226-1.858 4.084-4.456 5.196-7.054l2.97-7.051c3.341-9.652-0.372-19.673-8.909-24.128zM321.434 6.442c-97.99-33.777-205.631 9.277-253.142 101.332-47.511 91.68-20.786 204.519 63.1 265.392 5.568-38.23 36.004-67.926 74.607-72.379l148.844-16.703c2.226-0.372 4.825-0.372 7.051-0.372 19.673 0 37.862 9.28 50.109 24.497 11.878 15.591 15.963 35.635 10.764 54.565 23.757 5.196 43.801 21.156 53.821 43.055 8.909 20.044 9.28 42.686 1.115 63.102-2.598 6.682-6.311 12.99-10.764 18.929 24.869 14.476 41.571 40.088 44.17 68.669 2.97 28.581-8.537 56.788-30.436 75.72 27.095 19.301 41.2 51.593 36.747 84.257-4.456 32.664-26.726 60.502-57.534 71.638l-50.852 18.559 48.254 55.306c16.331 18.559 40.46 28.21 64.957 26.354h0.743c-26.355-31.55-27.47-76.834-2.97-109.498 20.413-27.096 54.562-40.087 87.967-33.406l60.132 11.878 66.44-54.934c5.568-4.454 12.622-6.31 19.673-4.454l144.39 36.747c25.983 7.052 53.078-7.052 61.987-31.55 8.909-25.982-4.456-54.563-30.068-63.843l-128.799-37.119c-5.939-1.483-10.764-5.196-13.733-10.392s-3.71-11.507-1.855-17.074c1.483-5.568 5.568-10.392 10.764-13.362s11.507-3.341 17.074-1.855l125.829 36.004c23.385-3.341 41.2-22.271 43.058-45.656 1.855-23.385-12.622-44.913-34.892-52.335l-128.427-36.747c-5.568-1.486-10.392-5.568-13.362-10.764s-3.713-11.135-1.858-17.074c1.486-5.568 5.568-10.395 10.767-13.362 5.196-2.97 11.135-3.713 17.074-1.858l126.569 36.375c21.53 0 40.831-14.105 47.514-34.518 4.081-12.622 3.338-26.355-2.601-38.233-5.936-11.878-16.331-21.156-28.95-25.24l-33.777-11.135c-0.372 0-0.372 0-0.743-0.372l-127.684-36.375c-5.568-1.483-10.767-5.196-13.365-10.392-2.97-5.196-3.71-11.507-1.855-17.074 1.483-5.568 5.568-10.392 10.764-13.362s11.507-3.341 17.074-1.858l125.829 36.007c18.561-1.858 33.406-16.334 35.264-34.892 2.226-18.558-9.28-36.004-26.726-41.571l-638.057-218.624zM1251.237 228.776c-51.964-115.434-185.218-169.999-302.882-123.971l-95.393 37.116 119.521 41.203c27.467 9.277 48.622 31.92 54.933 60.501 6.682 28.21-1.855 57.906-22.271 78.69 29.322 16.703 47.511 47.882 47.511 81.66s-17.818 64.957-46.768 82.031c16.703 20.044 24.125 46.396 20.784 72.379-2.97 23.385-14.476 44.541-32.291 59.761l153.667-83.146c109.126-59.018 154.039-192.641 103.187-306.223z" />
<glyph unicode="&#xe905;" glyph-name="6" horiz-adv-x="640" d="M68.55 914.745c24.994 24.994 65.516 24.994 90.509 0l407.294-407.294c24.993-24.993 24.993-65.516 0-90.509l-407.293-407.291c-24.994-24.998-65.516-24.998-90.51 0-24.993 24.992-24.993 65.51 0 90.509l362.039 362.037-362.039 362.038c-24.993 24.993-24.993 65.516 0 90.51z" />
<glyph unicode="&#xe906;" glyph-name="7" horiz-adv-x="576" d="M557.255 914.745c-24.995 24.995-65.518 24.992-90.51 0l-407.293-407.294c-24.992-24.991-24.995-65.515 0-90.509l407.293-407.291c24.995-24.998 65.518-24.992 90.51 0s24.995 65.51 0 90.509l-362.039 362.037 362.039 362.038c24.991 24.992 24.995 65.515 0 90.51z" />
<glyph unicode="&#xe907;" glyph-name="8" horiz-adv-x="1007" d="M689.601 689.599v65.867l44.798 21.6v-87.467c0-10.933 9.068-19.999 20-19.999 10.935 0 20 9.066 20 19.999v126.401c0 0.267 0 0.267 0 0.533 0 9.333-4.267 22.133-25.068 32.267l-212.533 102.667c-23.467 11.467-51.732 11.467-75.467 0l-212.533-102.667c-20.533-9.867-25.066-22.933-25.066-32.267s4.267-22.133 25.066-32.267l59.733-28.8v-65.867c0-40.265 22.666-74.933 63.468-97.865 33.865-18.934 78.933-29.334 126.933-29.334s93.066 10.4 126.933 29.334c41.066 22.932 63.734 57.6 63.734 97.865zM273.867 816.533l204.8 98.933c12.532 6.133 28 6.133 40.533 0l204.8-98.933-204.8-98.933c-12.534-6.134-28.001-6.134-40.533 0l-204.8 98.933zM348.534 689.599v46.667l112.799-54.4c11.735-5.6 24.801-8.533 37.601-8.533 13.066 0 25.866 2.934 37.6 8.533l112.8 54.4v-46.667c0-57.332-75.733-87.199-150.4-87.199s-150.4 29.867-150.4 87.199zM401.333 101.6v150.934c0 67.732-42.132 118.666-87.467 164l-53.866 53.333c-19.466 19.466-47.2 25.6-72.267 18.666l-8.533 188.8c-1.867 41.068-30.666 72.001-68.8 73.866-38.4 1.867-71.2-26.933-75.733-67.466l-33.067-289.067c-10.133-76.8 29.867-112.532 76.267-154.4 57.6-51.732 74.4-76 74.4-108.266v-30.401c-25.067-4.267-44-26.132-44-52.533v-59.733c0-29.332 23.733-53.333 53.067-53.333h230.399c29.334 0 53.333 24.001 53.333 53.333v60c0 25.868-18.932 47.734-43.733 52.267zM104.534 270.133c-47.733 42.935-70.4 65.867-63.2 119.467v0.268l33.333 289.333c2.133 19.2 16.8 32.8 34.133 32 19.2-1.067 29.867-18.668 30.667-35.734l9.333-213.065c-22.4-29.068-20.267-71.2 6.4-97.867l82.666-82.4c7.733-7.735 20.533-7.735 28.268 0 7.733 7.733 7.733 20.533 0 28.266l-82.668 82.4c-13.333 13.334-13.6 34.934-0.266 48.268 13.332 13.332 34.934 13.332 48.266 0.266l53.868-53.333c45.599-45.066 75.733-85.333 75.733-135.467v-150.134h-168.801v29.6c0 50.4-28.266 84.799-87.733 138.132zM405.067-10.667c0-7.2-5.868-13.332-13.334-13.332h-230.133c-7.2 0-13.067 6.132-13.067 13.332v60c0 7.2 5.867 13.334 13.067 13.334h230.401c7.199 0 13.332-6.134 13.332-13.334v-60h-0.266zM996.533 394.667l-33.333 289.067c-4.533 40.267-37.333 69.333-75.733 67.466-38.134-1.865-66.934-33.067-68.799-73.866l-8.267-188.8c-24.801 6.934-52.535 0.534-72.267-18.666l-53.866-53.333c-45.6-45.068-87.467-96.268-87.467-164v-150.934c-25.068-4.267-44.001-26.132-44.001-52.533v-59.733c0-29.332 24.001-53.333 53.333-53.333h230.666c29.334 0 53.067 24.001 53.067 53.333v60c0 26.134-18.932 48-44 52.535v30.399c0 32.266 16.8 56.533 74.4 108.268 46.399 41.6 86.4 77.599 76.266 154.132zM849.867 49.067v-59.733c0-7.2-6.134-13.332-13.068-13.332h-230.666c-7.199 0-13.332 6.132-13.332 13.332v60c0 7.2 6.134 13.334 13.332 13.334h230.4c7.2-0.266 13.334-6.4 13.334-13.6zM893.6 270.133c-59.467-53.333-87.733-87.733-87.733-138.132v-29.6h-169.068v150.134c0 50.133 30.401 90.4 75.733 135.467l53.866 53.333c13.334 13.332 35.2 13.332 48.268-0.266 13.332-13.334 13.066-34.934-0.268-48.268l-82.666-82.4c-7.733-7.733-7.733-20.533 0-28.266 7.733-7.735 20.533-7.735 28.266 0l82.668 82.4c26.667 26.667 28.8 68.799 6.4 97.867l9.334 213.065c0.799 17.067 11.465 34.934 30.665 35.734 17.067 0.8 31.734-12.8 33.867-32l33.333-289.333v-0.268c7.735-53.6-14.933-76.532-62.665-119.467z" />
<glyph unicode="&#xe908;" glyph-name="9" d="M758.001 496c7.799 7.799 7.799 20.4 0 28.199-7.801 7.801-20.4 7.801-28.201 0-7.799-7.799-7.799-20.4 0-28.199 7.6-7.799 20.2-7.799 28.201 0zM41 118.4l141.4-141.401c54.6-54.6 143.399-54.6 198.001 0l80.599 80.601c23.001 23.001 32.601 54.799 28.201 84.801 31.2-4.401 62.399 5.799 84.799 28.199 23.001 22.999 32.401 54.799 28.201 84.799 31-4.4 62.199 5.601 84.999 28.201 23.001 22.999 32.401 54.799 28.201 84.799 31.399-4.4 62.399 5.801 84.999 28.201l35 35c26.201 26.199 43.6 59.399 50 96l29 163.999c19.801-4.4 40.801 1.201 55.801 16l36.2 36.2c23.398 23.4 23.398 61.401 0 84.801l-113.201 113.8c-23.4 23.4-61.399 23.4-84.799 0l-36.4-36.2c-14.8-14.8-20.601-35.8-16-55.8l-164-29c-36.599-6.4-69.799-23.8-96-50l-35-35c-22.999-22.999-32.599-54.799-28.199-84.799-30.401 4.2-61.8-5.2-84.801-28.201-23.199-23.199-32.599-54.4-28.399-84.799-30.201 4.2-61.6-5.2-84.801-28.201-22.4-22.4-32.8-53.6-28.199-84.799-30 4.2-61.8-5.2-84.801-28.199l-80.6-80.601c-54.8-55.001-54.8-143.8-0.2-198.4zM800.399 877.8l36.2 36.2c7.801 7.8 20.4 7.8 28.201 0l113.2-113c7.799-7.8 7.799-20.4 0-28.201l-36.2-36.198c-7.799-7.801-20.4-7.801-28.201 0l-113.2 113.199c-7.799 7.6-7.799 20.2 0 28zM489.201 708.2l34.999 35c20.401 20.4 46.201 33.799 74.6 38.799l180.601 32 98.4-98.4-31.8-180.599c-5.001-28.401-18.4-54.2-38.799-74.6l-35.2-35.2c-23.4-23.4-61.401-23.4-84.801 0l-197.999 197.999c-23.4 23.4-23.4 61.6 0 85.001zM376.001 595c23.398 23.4 61.399 23.4 84.799 0l198.001-198.001c23.4-23.4 23.4-61.399 0-84.799s-61.401-23.4-84.801 0l-197.999 197.999c-23.4 23.4-23.4 61.401 0 84.801zM263.001 481.801c23.4 23.4 61.399 23.4 84.799 0l198.001-198.001c23.4-23.4 23.4-61.401 0-84.799-23.4-23.4-61.401-23.4-84.801 0l-197.999 197.999c-23.601 23.4-23.601 61.401 0 84.801zM149.8 368.8c23.399 23.4 61.4 23.4 84.8 0l198.001-198.001c23.4-23.4 23.4-61.399 0-84.799l-80.601-80.601c-39.001-39.001-102.4-39.001-141.401 0l-141.399 141.401c-39 38.999-39 102.4 0 141.399l80.6 80.601zM921.8 376.999c-3.4 6.601-10.199 11.001-17.799 11.001s-14.401-4.2-17.801-11.001l-89.201-174.599c-40.6-79.2 17.2-174.601 107.001-174.601 89.6 0 147.4 95.2 106.999 174.401l-89.201 174.799zM903.799 68c-59.8 0-98.2 63.599-71.4 116.4l71.4 139.8 71.4-139.8c27.001-52.801-11.399-116.4-71.4-116.4zM701.401 580.799l-96.601 96.601c-7.799 7.799-20.4 7.799-28.199 0-7.801-7.799-7.801-20.4 0-28.199l96.599-96.601c7.799-7.799 20.4-7.799 28.201 0 7.799 7.799 7.799 20.4 0 28.199z" />
<glyph unicode="&#xe909;" glyph-name="10" d="M874.134 810.133c-321.867 321.066-873.868 92.267-874.134-362.399v-161.335c0-36.533 24.8-67.2 58.4-76 186.133-357.067 699.734-365.867 898.4-15.734 37.866 5.601 67.2 38.4 67.2 77.867v175.468c0 136.8-53.333 265.334-149.866 362.133zM512-24.001c-169.6 0-324.267 89.868-408.533 235.733 31.2 10.4 53.867 40.001 53.867 74.667v102.934c2.133 51.2 75.2 51.2 77.333 0v-156.8c4.267-104.267 153.068-104.267 157.334 0v81.333c67.466-62.399 180.265-60.266 245.065 4.801 31.734-80.534 150.666-60.001 152.267 27.733v42.933c2.133 51.2 75.199 51.2 77.332 0v-116.801c0-32.266 19.468-60 47.201-71.999-85.6-138.933-237.867-224.534-401.867-224.534zM631.999 375.999c-53.065-89.866-186.933-89.866-239.998 0v72.001c6.666 159.2 233.332 159.2 239.998 0v-72.001zM983.999 272.532c-2.133-51.2-75.199-51.2-77.332 0v116.801c-4.267 104.267-153.068 104.267-157.334 0v-42.933c-2.133-51.2-75.199-51.2-77.332 0v101.6c-8.8 212.267-311.2 212.267-320 0v-215.467c-2.133-51.2-75.199-51.2-77.332 0v156.8c-4.267 104.267-153.068 104.267-157.334 0v-102.934c-2.133-51.2-75.2-51.2-77.333 0v161.601c0 0 0 0 0 0.266 26.133 626.134 918.133 625.6 943.999-0.266v-175.468zM233.334 602.4l-34.668-20c-9.6-5.6-12.8-17.867-7.199-27.201 5.6-9.6 17.865-12.8 27.199-7.199l34.668 19.999c9.6 5.601 12.8 17.867 7.199 27.201-5.333 9.334-17.599 12.534-27.199 7.2zM334.133 721.333c-7.733 7.733-20.533 7.733-28.266 0s-7.733-20.533 0-28.266l28.266-28.268c7.735-7.733 20.533-7.733 28.268 0 7.733 7.735 7.733 20.535 0 28.268l-28.268 28.266zM454.134 827.2l-28.268-28.267c-18.133-19.466 8.801-46.399 28.268-28.266l28.266 28.266c7.735 7.733 7.735 20.533 0 28.267-7.999 8-20.533 8-28.266 0zM602.134 753.333c-7.735 7.733-20.535 7.733-28.268 0s-7.733-20.533 0-28.266l28.268-28.268c7.733-7.733 20.533-7.733 28.266 0 7.733 7.735 7.733 20.535 0 28.268l-28.266 28.266zM787.2 727.2c-7.733 7.733-20.533 7.733-28.266 0l-28.268-28.268c-7.733-7.733-7.733-20.533 0-28.266s20.533-7.733 28.268 0l28.266 28.266c8.001 8.001 8.001 20.533 0 28.268zM830.133 579.732l-38.666 10.4c-25.866 5.868-35.732-30.667-10.4-38.666l38.668-10.4c10.399-2.934 21.6 3.466 24.533 14.133 2.666 10.667-3.468 21.601-14.135 24.533z" />
<glyph unicode="&#xe90a;" glyph-name="11" horiz-adv-x="990" d="M932 493.6c-33 34.599-77.6 53.6-125.8 53.6-45 0-87.6-17-120.001-48l-2-2 7.2 77.401 18.2 195.4c8.801 95.4-61.599 180.2-157 189.2-95.8 8.8-180.599-61.6-189.399-157l-18.202-195.4-4.198-44.201-82.601 138.4c-24.999 41.8-70.799 67.801-119.8 67.801-25 0-49.4-6.801-70.8-19.601-65.6-39.4-87.2-125-48-190.8l151.399-253.8c25.001-41.8 70.801-67.799 119.801-67.799 24.999 0 49.399 6.799 70.799 19.599 9.201 5.4 17.399 11.8 24.8 18.801 11.6-10.4 24.6-19 38.4-25.8l-14.8-14.201c-69.4-66.2-71.799-176.399-5.6-245.799 32.8-34.4 77.6-53.4 125.6-53.4 45 0 87.6 17 119.999 48l276.2 263.799c33.401 32 52.4 75.201 53.601 121.8 1 46.601-16 90.6-47.8 124.001zM88.2 714.6c15.2 8.999 32.6 13.8 50.4 13.8 35 0 67.599-18.4 85.4-48.2l64-107.401c-29.6-8.8-60.6-22.6-90.999-40.8-30.401-18.2-57.2-38.801-79.2-60.6l-64 107.401c-27.8 47-12.4 108 34.4 135.799zM341.001 290.799c-15.201-8.999-32.601-13.798-50.401-13.798-34.999 0-67.599 18.4-85.4 48.2l-65.999 110.8c20.4 21.999 47.799 43.6 78.4 62 30.601 18.2 62.601 32 91.8 39.6l66.2-110.8c21.001-35.2 17.601-78.399-5.4-109.401-0.2-0.399-0.599-0.599-0.8-0.998-7.6-10.201-17.2-18.801-28.399-25.602zM410.999 307c24.001 42.199 25.201 95.599-1.2 140.199l-34 57.001 7.801 84.4c18 3.799 37.4 6.2 57.999 7.4 10.999 0.599 19.4 9.999 18.801 21.2-0.601 10.999-10.001 19.4-21.2 18.799-18.2-1-35.4-3-51.801-5.799l15.601 168.4c6.799 73.4 72.201 127.6 145.599 120.8 73.4-6.8 127.8-72.2 121.001-145.601l-15.601-168.4c-15.599 5.801-32.2 11.001-49.801 15.401-10.8 2.599-21.6-3.801-24.199-14.601-2.601-10.8 3.799-21.6 14.599-24.199 20-5.001 38.801-11.001 55.601-18l-10.001-108.8-183.799-175.601c-17 6.001-32.2 15.2-45.401 27.401zM622.401 12.8c-24.801-23.6-57.6-36.801-92.401-36.801-37.001 0-71.4 14.601-96.8 41.201-51 53.4-49 138.201 4.4 189.199l123.8 118.2c35.401-19.799 72.4-49.2 105.801-84.2 33.399-34.799 61-73.199 79.2-109.399l-124-118.2zM898.599 276.799l-122.399-116.799c-19.801 36.4-47.601 73.999-80.401 108.401-32.799 34.2-68.999 63.799-104.6 85.199l122.201 116.801c24.8 23.799 57.8 36.799 92.399 36.799 37.001 0 71.4-14.599 96.8-41.199 24.6-25.8 37.6-59.6 36.801-95.601-0.401-35.799-15-69.001-40.801-93.6zM520.4 634.4c-10.999 0-20-9.001-20-20s9.001-20 20-20c10.999 0 20 9.001 20 20s-9.001 20-20 20z" />
<glyph unicode="&#xe90b;" glyph-name="12" d="M546.133 960h-68.267v-477.867h-477.867v-68.267h477.867v-477.867h68.267v477.867h477.867v68.267h-477.867v477.867z" />
<glyph unicode="&#xe90c;" glyph-name="13" horiz-adv-x="1092" d="M1058.611 490.605l-191.597-134.39c-28.46-19.993-40.414-55.418-29.553-87.783l77.162-217.423c3.277-9.68 4.499-19.115 4.11-28.174-2.758-58.416-77.995-98.345-133.188-59.604l-191.598 134.451c-14.264 9.994-31.033 14.991-47.803 14.991s-33.539-4.997-47.802-14.991l-191.532-134.451c-55.192-38.741-130.815 1.249-133.193 59.604-0.385 9.059 0.9 18.493 4.177 28.174l77.101 217.423c10.923 32.365-1.028 67.79-29.555 87.783l-191.661 134.39c-63.737 44.734-30.969 150.759 47.803 150.759h236.765c35.21 0 66.436 13.183 77.358 45.546l73.182 218.86c12.208 36.112 44.784 54.231 77.358 54.231s65.215-18.119 77.358-54.231l73.18-218.86c10.923-32.363 42.086-45.546 77.36-45.546h236.769c78.766 0 111.534-106.025 47.8-150.759z" />
<glyph unicode="&#xe90d;" glyph-name="14" horiz-adv-x="1092" d="M995.28 652.173l-240.203 33.997-107.597 212.117c-41.297 82.038-161.397 82.038-203.071 0l-107.219-212.117-240.2-33.997c-92.822-13.304-129.951-124.535-62.892-188.097l173.899-165.555-40.918-233.184c-15.912-90.167 81.078-158.897 164.049-116.401l214.816 110.121 214.819-110.121c82.971-42.496 179.958 26.235 164.045 116.401l-40.919 233.184 173.903 165.185c67.058 63.931 29.928 175.163-62.512 188.467zM989.976 531.702l-192.089-182.553c-11.366-10.717-16.671-26.607-14.015-41.758l45.466-257.939c2.273-12.937-11.366-22.542-23.491-16.63l-237.171 121.576c-14.019 7.393-31.067 7.393-45.085 0l-237.548-121.576c-11.745-6.281-25.762 3.693-23.489 16.63l45.464 257.939c2.652 15.52-2.652 31.041-14.018 41.758l-192.085 182.553c-9.471 9.239-4.546 25.129 9.093 26.977l265.584 37.693c15.912 2.217 29.551 11.826 36.371 25.868l118.585 234.289c6.061 11.826 23.11 11.826 29.172 0l118.585-234.658c7.199-14.043 20.838-23.651 36.369-25.868l265.585-37.693c13.264-1.478 18.569-17.368 8.718-26.607z" />
<glyph unicode="&#xe90e;" glyph-name="15" d="M512 728c-110.4 0-200-89.6-200-200s89.6-200 200-200c110.4 0 200 89.6 200 200s-89.6 200-200 200zM512 408c-66.133 0-120 53.867-120 120s53.867 120 120 120c66.133 0 120-53.867 120-120s-53.867-120-120-120zM512 960c-287.2 0-512-224.8-512-512 0-288 225.867-512 512-512 286.4 0 512 224.269 512 512 0 287.2-224.8 512-512 512zM512 16c-93.867 0-180 28.531-250.133 77.6 47.2 93.331 144.266 154.4 250.133 154.4s203.2-61.069 250.131-154.4c-70.131-49.069-156.264-77.6-250.131-77.6zM824.531 146.931c-26.131 45.338-61.6 84.8-105.331 115.469-60.8 42.931-132.533 65.6-207.2 65.6s-146.4-22.669-207.2-65.6c-43.467-30.669-79.2-69.869-105.333-115.469-74.4 77.338-119.467 182.936-119.467 301.069 0 242.133 189.867 432 432 432 242.131 0 432-189.867 432-432 0-118.133-45.069-223.731-119.469-301.069z" />
<glyph unicode="&#xe90f;" glyph-name="16" d="M1020.998 139.002c6.202-15.002 2.4-32.403-9.197-43.802-7.603-7.398-17.6-11.2-27.802-11.2-5.402 0-11.002 1.203-16.198 3.398l-214.598 94.605c-27.002-10.202-54.605-18.003-83.002-23.206-28.998-47.795-70.602-88.397-121.002-117.798-56.4-32.998-121.4-50.598-188.2-50.995-1 0-1.999-0.205-3-0.205-46.2 0-91 8-133.4 23.802l-168.4-74.202c-5.2-2.195-10.6-3.398-16.2-3.398-10.2 0-20.2 3.802-27.8 11.2-11.6 11.398-15.4 28.602-9.2 43.802l58.4 144.595c-40.2 54.605-61.4 118.202-61.4 185.403 0 107.201 55.6 207 149.6 269.201 8.6 95.6 53.4 184.4 128 252.6 82.6 75.6 192 117.2 308.4 117.2s225.802-41.6 308.4-117.2c83.597-76.4 129.6-178.4 129.6-287 0-18-1.6-38.399-4.403-57.599-3.2-21.8-23.597-37-45.395-33.6-21.798 3.2-37.005 23.6-33.6 45.4 2.195 15.2 3.597 31.8 3.597 45.8-0.198 178.8-160.8 324.2-358.198 324.2-197.4 0-358-145.4-358-324.2 0-156.6 143.8-324.203 358-324.203 53.2 0 104.4 10.4 152.202 30.803 10.202 4.403 21.798 4.198 31.795-0.198l140.006-61.6-47.206 116.602c-8.198 20.397 1.6 43.796 22.003 51.997s43.802-1.6 52-22l84.198-208.198zM563.2 152c-110.8 5.203-213.4 48.403-291 123.2-62.4 60-103.6 136.4-118.4 216.2-47-45.999-74-106.4-74-170.4 0-55.796 19.999-108.801 57.599-153 9.601-11.398 12.2-27.2 6.6-40.998l-30-74.598 93.6 41.197c10.2 4.397 21.6 4.602 31.8 0.198 36.8-15.597 76.001-23.597 116.801-24 0.6 0 1 0 1.599 0 79 0.205 153.4 31.002 205.4 82.202z" />
<glyph unicode="&#xe910;" glyph-name="17" horiz-adv-x="745" d="M352.89 936.727c-203.823 0-352.907-202.752-352.907-369.85 0-80.756 8.704-157.417 56.971-221.743l273.129-368.081c0.698-0.884 1.769-1.257 2.513-2.095 2.726-3.128 6.124-5.595 9.941-7.219s7.951-2.365 12.094-2.164c4.143 0.2 8.186 1.341 11.827 3.328s6.784 4.776 9.193 8.15c88.681 118.379 198.161 246.691 282.408 368.081 63.376 102.865 64.54 144.384 64.54 221.743 0 167.098-165.888 369.85-369.709 369.85zM352.797 296.82c-148.573 0-251.811 121.391-251.811 269.917 0 148.62 103.284 270.057 251.811 270.057 148.525 0 269.916-121.437 269.916-269.964 0-148.62-121.391-270.010-269.916-270.010z" />
<glyph unicode="&#xe911;" glyph-name="18" horiz-adv-x="1317" d="M1150.186 960h-983.853c-92.124 0-166.36-88.697-166.36-198.768v-626.466c0-110.065 74.236-198.766 166.36-198.766h983.853c92.123 0 166.356 88.7 166.356 198.766v626.466c0 110.070-74.233 198.768-166.356 198.768zM1124.25 831.762l-465.991-301.595-465.987 301.595h931.978zM1150.186 64.234h-983.853c-32.199 0-59.031 32.066-59.031 70.532v613.642l517.863-350.753c9.838-8.549 21.466-13.893 33.093-13.893s23.255 4.275 33.093 13.893l517.86 350.753v-613.642c0-39.541-26.829-70.532-59.026-70.532z" />
<glyph unicode="&#xe912;" glyph-name="19" d="M970.456 261.131l-103.036 84.415c-67.223 54.967-171.24 49.815-232.572-11.533l-4.171-4.171c-10.305-10.305-26.985-10.305-37.047 0l-198.958 199.009c-10.058 10.061-10.304 26.256-0.491 36.562 0.246 0.246 0.246 0.491 0.491 0.491l-0.491-0.491c0.246 0.246 0.246 0.246 0.491 0.491 60.841 61.592 66.729 166.127 13.493 233.608l-83.657 105.762c-53.972 67.972-147.197 73.371-208.529 12.024l-15.455-15.46c-108.435-108.706-134.194-304.77-52.5-435.071 0 0 48.084-111.407 210.001-273.361s273.295-210.049 273.295-210.049c131.496-79.506 326.287-55.954 434.966 52.758l14.719 14.719c61.090 61.106 56.428 155.33-10.547 210.297zM906.914 124.696l-14.719-14.724c-74.58-74.596-216.377-91.772-306.661-37.053l-6.133 3.681-6.624 2.948c-8.095 3.433-28.456 14.476-59.123 35.085-54.463 36.568-115.795 86.868-181.788 152.878s-116.285 127.111-152.84 181.588c-20.607 30.673-31.647 51.040-35.082 59.138l-3.189 7.361-4.17 6.871c-54.953 87.603-37.045 230.173 38.026 305.507l15.455 15.459c16.928 16.932 37.29 15.95 52.255-2.945l83.656-105.761c20.608-26.011 17.909-71.408-5.888-95.21-50.537-51.286-50.292-133.735 0.491-184.531l198.961-199.010c51.030-51.038 133.947-51.038 185.223 0l4.171 4.171c23.304 23.315 66.727 25.277 92.241 4.419l103.041-84.415c19.133-15.705 20.114-38.034 2.695-55.458z" />
<glyph unicode="&#xe913;" glyph-name="20" horiz-adv-x="796" d="M384 960c-211.734 0-384-173.6-384-386.667 0-303.202 348-616 362.667-629.334 6.133-5.33 13.6-7.999 21.333-7.999 7.467 0 15.2 2.668 21.333 7.999 14.933 13.067 362.667 326.133 362.667 629.068 0 213.333-172.265 386.933-384 386.933zM384 362.667c-117.6 0-213.333 95.733-213.333 213.333s95.733 213.333 213.333 213.333c117.6 0 213.333-95.733 213.333-213.333s-95.733-213.333-213.333-213.333z" />
<glyph unicode="&#xe914;" glyph-name="21" d="M941.87 287.733c-62.669 0-124.268 9.865-182.67 29.070-28.53 9.865-63.733 0.796-81.067-17.072l-115.199-86.932c-133.6 71.202-215.733 153.6-286.133 286.135l84.266 112.267c21.867 21.866 29.867 53.866 20.267 83.733-19.466 58.667-29.066 120.267-29.066 182.934 0 45.333-36.8 82.133-82.133 82.133h-188c-45.333 0-82.133-36.8-82.133-82.133 0-519.467 422.4-941.867 941.87-941.867 45.329 0 82.13 36.801 82.13 82.13v187.472c0 45.329-36.801 82.13-82.13 82.13z" />
<glyph unicode="&#xe915;" glyph-name="22" horiz-adv-x="1317" d="M1199.543-63.985c29.257 0 54.864 9.048 76.807 28.95l-373.036 369.071c-9.143-7.237-18.286-12.664-25.6-18.092-27.429-19.901-51.2-36.184-67.657-47.039-18.286-10.855-40.229-23.519-69.486-34.374-29.253-12.666-56.682-18.093-80.453-18.093h-1.829c-25.6 0-51.2 5.427-80.457 18.093s-51.2 23.519-69.486 34.374c-16.457 10.855-40.229 27.138-67.657 47.039-7.314 5.428-16.457 12.665-25.6 18.092l-374.857-369.071c21.943-19.902 47.543-28.95 76.8-28.95h1082.511zM74.971 567.393c-27.429 18.092-53.029 39.802-74.971 63.322v-560.848l329.143 325.654c-65.829 43.421-151.771 101.315-254.171 171.873zM1243.429 567.416c-100.571-66.94-184.686-124.834-256-173.681l329.143-325.653v560.847c-21.943-21.71-45.714-43.421-73.143-61.512zM1199.543 960h-1082.514c-36.571 0-65.829-12.664-85.943-37.993s-31.086-56.085-31.086-94.077c0-30.757 12.8-63.322 40.229-99.506s54.857-63.321 85.943-83.223c16.457-10.855 67.657-47.039 149.943-103.123 45.714-30.757 84.114-57.894 118.857-81.414 29.257-19.901 53.029-36.184 74.971-50.657 1.829-1.81 5.486-3.618 10.971-7.237s12.8-9.046 20.114-14.474c16.457-10.855 29.257-19.901 40.229-27.138s23.771-14.474 38.4-23.519c14.629-9.046 29.257-14.474 42.057-19.901 12.8-3.618 25.6-7.237 36.571-7.237s23.771 1.81 36.571 7.237c12.8 3.618 27.429 10.855 42.057 19.901s27.429 16.282 38.4 23.519c10.971 7.237 23.771 16.283 40.229 27.138 7.314 5.427 14.629 10.855 20.114 14.474s9.143 5.427 10.971 7.237c16.457 10.854 40.229 28.947 74.971 50.657 60.343 41.612 149.943 103.124 268.8 184.537 36.571 25.329 65.829 54.276 89.6 88.651s36.571 72.368 36.571 110.36c0 32.565-10.971 59.703-34.743 81.413-23.771 23.519-51.2 34.375-82.286 34.375z" />
<glyph unicode="&#xe916;" glyph-name="23" horiz-adv-x="1229" d="M1145.016 587.634h-64.23l-173.46 346.609c-11.479 22.962-39.409 32.272-62.372 20.79s-32.271-39.408-20.787-62.371l152.356-305.028h-761.482l152.359 305.028c11.481 22.962 2.172 50.89-20.79 62.371s-50.89 2.172-62.371-20.79l-173.459-346.609h-64.233c-25.755 0-46.545-20.79-46.545-46.545s20.79-46.545 46.545-46.545c22.342 0 41.27-15.825 45.615-37.546l94.953-483.451c4.344-21.412 23.272-37.545 45.614-37.545h726.111c22.963 0 41.58 16.445 45.921 37.545l94.956 483.451c4.342 21.721 23.583 37.546 45.614 37.546 25.754 0 46.546 20.79 46.546 46.545-0.312 25.755-21.1 46.545-46.858 46.545zM920.668 29.087h-649.774c-91.229 465.456-87.505 450.562-92.781 465.456h835.026c-4.966-14.895-1.244 0-92.472-465.456zM482.521 122.179c25.755 0 46.544 20.787 46.544 46.546v186.179c0 25.759-20.789 46.546-46.544 46.546s-46.545-20.787-46.545-46.546v-186.179c0-25.759 20.79-46.546 46.545-46.546zM709.043 122.179c25.759 0 46.546 20.787 46.546 46.546v186.179c0 25.759-20.787 46.546-46.546 46.546-25.754 0-46.541-20.787-46.541-46.546v-186.179c0-25.759 20.787-46.546 46.541-46.546z" />
<glyph unicode="&#xe917;" glyph-name="24" horiz-adv-x="1728" d="M64 512c-35.346 0-64-28.654-64-64s28.654-64 64-64v128zM1709.254 402.745c24.992 24.994 24.992 65.516 0 90.509l-407.296 407.294c-24.992 24.994-65.51 24.994-90.509 0-24.992-24.994-24.992-65.516 0-90.51l362.042-362.038-362.042-362.042c-24.992-24.992-24.992-65.51 0-90.509 24.998-24.992 65.517-24.992 90.509 0l407.296 407.295zM64 384h1600v128h-1600v-128z" />
<glyph unicode="&#xe918;" glyph-name="25" horiz-adv-x="1728" d="M1664 512c35.347 0 64-28.654 64-64s-28.653-64-64-64v128zM18.745 402.745c-24.994 24.994-24.994 65.516 0 90.509l407.293 407.294c24.994 24.994 65.516 24.994 90.51 0s24.993-65.516 0-90.51l-362.039-362.038 362.039-362.042c24.993-24.992 24.993-65.51 0-90.509-24.994-24.992-65.516-24.992-90.509 0l-407.294 407.295zM1664 384h-1600v128h1600v-128z" />
<glyph unicode="&#xe919;" glyph-name="26" horiz-adv-x="819" d="M375.229 842.133c-7.889-0.267-15.251-2.4-22.351-5.867-5.784 35.467-43.123 57.067-76.781 40.8v27.733c0 30.4-24.454 55.2-54.431 55.2-55.745 0-54.167-59.733-54.431-60.8-7.099 3.467-14.988 5.6-23.402 5.6-29.976 0-54.431-24.8-54.431-55.2v-133.334c-41.020 24-89.403-7.2-89.403-52.8v-242.132c0-45.6 18.407-89.868 50.486-121.868 26.032-25.866 41.283-62.132 41.283-99.2v-162.132c0-8.8 7.1-15.734 15.514-15.734h217.196c8.677 0 15.514 7.2 15.514 15.734v162.132c0 37.068 14.989 73.334 41.284 99.2 32.079 31.734 50.486 76.268 50.486 121.868v363.732c0 30.934-24.979 58.134-56.534 57.067zM400.472 421.334c0-37.068-14.988-73.334-41.283-99.2-32.081-31.734-50.487-76.268-50.487-121.868v-146.4h-185.905v146.4c0 45.6-18.407 89.868-50.486 121.868-26.032 25.866-41.020 62.132-41.020 99.2v242.132c0 16.268 12.622 29.334 28.662 29.6 14.988 0.8 29.713-13.866 29.713-31.466v-128.266c0-8.8 6.837-15.734 15.514-15.734h33.92c58.376 0 105.969-48.266 105.969-107.466 0-8.8 6.838-15.734 15.515-15.734s15.514 7.2 15.514 15.734c0 76.8-61.53 139.2-137.26 139.2h-18.407c0 53.066 0 222.4 0 300.533 0 13.067 10.518 23.733 23.403 23.733s23.402-10.667 23.402-23.733v-238.133c0-8.8 7.1-15.734 15.515-15.734 8.677 0 15.514 7.2 15.514 15.734 0 179.466 0 190.4 0 293.333 0 13.067 10.518 23.733 23.402 23.733s23.402-10.667 23.402-23.733v-293.333c0-8.8 7.1-15.734 15.515-15.734 8.677 0 15.514 7.2 15.514 15.734v216c0 13.066 10.518 23.733 23.402 23.733s23.402-10.667 23.402-23.733c0-22.134 0 80 0-216 0-8.8 7.1-15.734 15.515-15.734 8.677 0 15.514 7.2 15.514 15.734v175.466c0 13.066 10.255 22.934 22.351 23.466 13.411 0.534 24.191-12 24.191-25.6v-363.732zM755.981 527.999c-6.31 22.934-30.24 38.668-55.745 30.4v14.4c0 24.8-19.985 45.068-44.439 45.068-23.928 0-43.123-19.2-44.175-43.2-4.207 1.332-8.677 2.4-13.411 2.4-24.454 0-44.438-20.268-44.438-45.068v-92c-32.081 13.068-66.001-11.466-66.001-45.6v-178.932c0-34.934 14.199-68.8 38.653-93.068 18.669-18.4 29.188-44 29.188-70.4v-56c0-8.8 7.099-15.732 15.514-15.732 8.677 0 15.514 7.2 15.514 15.732v56c0 34.668-14.199 68.8-38.653 93.068-18.669 18.4-29.188 44-29.188 70.4v179.2c0 23.2 34.973 23.732 34.973-1.334v-94.934c0-8.8 7.099-15.732 15.514-15.732h25.243c41.020 0 74.415-33.868 74.415-75.468 0-20.8 31.291-20.8 31.291 0 0 58.934-47.331 106.934-105.443 106.934h-9.467c0 226.4 0 215.2 0 218.134 0 7.466 5.786 13.332 13.148 13.332s13.147-6.132 13.147-13.332v-176c0-8.8 7.1-15.734 15.514-15.734 8.678 0 15.515 7.2 15.515 15.734 0 132.8 0 140.8 0 216.8 0 7.466 6.048 13.332 13.147 13.332 7.363 0 13.148-6.132 13.148-13.332v-216.8c0-8.8 7.099-15.734 15.514-15.734 8.677 0 15.514 7.2 15.514 15.734v159.732c0 7.468 6.048 13.334 13.148 13.334 7.363 0 13.147-6.134 13.147-13.334 0-16.266 0 59.2 0-159.732 0-8.8 7.1-15.734 15.515-15.734 8.677 0 15.514 7.2 15.514 15.734v129.866c0 7.466 5.784 13.066 12.622 13.334 8.151-0.268 13.673-7.2 13.673-14.668v-269.066c0-26.4-10.518-52-29.188-70.4-24.454-24.266-38.653-58.134-38.653-93.066v-56c0-8.8 7.1-15.734 15.515-15.734 8.677 0 15.514 7.2 15.514 15.734v56c0 26.4 10.78 52 29.188 70.4 24.454 24.266 38.653 58.132 38.653 93.066v268.8c0.788 29.6-27.347 54.934-58.638 43.466zM537.468 34.399v-77.332c0-11.734 9.204-21.068 20.773-21.068h186.958c11.57 0 20.773 9.334 20.773 21.068v77.332c0 11.734-9.203 21.068-20.773 21.068h-186.958c-11.569 0-20.773-9.334-20.773-21.068zM783.59 855.732c-9.992-74.667-88.088-142.933-119.379-167.467-7.363-5.866-17.88-5.866-25.243 0-31.028 24.534-109.388 92.8-119.379 167.467-5.522 43.467 23.402 85.6 66.525 88.267 27.61 1.6 52.328-12.533 65.738-34.4 13.411 21.867 37.865 36 65.737 34.4 42.861-2.667 71.785-44.8 66.001-88.267zM367.078 170.132v-213.066c0-11.734-9.203-21.068-20.773-21.068h-269.787c-11.57 0-20.773 9.334-20.773 21.068v213.066c0 23.2 18.669 42.134 41.546 42.134h228.241c23.14 0 41.546-18.668 41.546-42.134z" />
<glyph unicode="&#xe91a;" glyph-name="27" horiz-adv-x="858" d="M426.95 192c-24.462 21.334-60.872 21.334-85.334 0-11.094-9.672-17.35-23.608-17.35-38.116 0-14.79 6.542-28.444 17.92-38.116l84.764-77.368 84.764 77.368c11.094 9.388 17.636 23.325 17.92 38.116 0 14.792-6.258 28.73-17.352 38.116-24.462 21.334-60.87 21.334-85.332 0zM716.799 38.4h-34.132v-34.134h34.132v34.134zM648.534 38.4h-34.134v-34.134h34.134v34.134zM415.574 25.885c6.542-5.972 16.497-5.972 23.040 0l84.764 77.37c14.79 13.084 23.324 31.572 23.324 51.2 0 19.342-8.534 37.546-22.756 50.346-27.022 23.608-65.99 27.022-96.71 8.534-30.72 18.488-69.974 15.075-96.712-8.534-14.506-12.8-22.756-31.004-22.756-50.346 0.285-19.628 8.534-38.116 23.325-51.2l84.48-77.37zM352.996 179.485c17.92 15.36 44.372 15.36 62.292 0 6.542-5.972 16.498-5.972 23.040 0 17.92 15.36 44.374 15.36 62.294 0 7.396-6.258 11.662-15.36 11.662-25.030-0.284-9.956-4.55-19.342-12.23-25.885l-73.388-66.844-73.386 66.844c-7.68 6.543-11.946 15.93-12.232 25.885 0.57 9.386 4.836 18.488 11.948 25.030zM783.354 438.614c-2.845 5.688-8.818 9.386-15.36 9.386h-223.005c3.698 28.16-1.706 56.604-15.36 81.352l94.436 124.586 104.392 17.35 73.956 147.912v140.8h-140.516l-70.258-34.987-248.036-53.191-36.694-202.524 21.903-94.72c-40.108-29.014-60.872-77.654-54.614-126.862h-188.871c-6.542 0-12.516-3.698-15.36-9.388l-68.267-136.532c-2.56-5.404-2.276-11.662 0.853-16.498 3.129-5.12 8.533-7.964 14.507-7.964h51.2v-324.268c0-9.386 7.68-17.066 17.067-17.066h682.667c9.386 0 17.066 7.68 17.066 17.066v324.268h51.2c5.974 0 11.378 3.128 14.506 7.964 3.13 5.12 3.414 11.378 0.854 16.782l-68.266 136.534zM373.184 843.378l227.84 48.924 68.552 33.564h98.418v-98.418l-62.578-125.155-100.41-16.782-114.915-151.894c-3.698-5.12-9.103-8.25-15.36-9.386-7.396-0.854-14.792 1.137-20.765 5.404-5.404 3.698-8.818 9.386-9.955 15.644s0.568 12.8 4.266 17.92l118.614 157.014-45.796 69.12h-108.942l-19.912-119.468 11.378-68.55c-15.076-0.854-29.866-3.982-43.804-9.388l-18.204 78.223 31.572 173.226zM437.468 605.866l-10.808 64 14.222 85.334h61.724l22.472-33.564-87.61-115.77zM356.972 552.676c16.782 10.24 36.408 15.076 56.035 14.506-7.68-23.894 0.57-49.778 20.765-64.568 10.808-7.965 23.892-12.516 37.546-12.516 2.844 0 5.974 0.284 8.818 0.568 9.102 1.422 17.92 5.12 25.316 10.525 17.35-44.658 1.137-95.574-39.254-121.743h-112.356c-29.582 19.343-46.934 52.338-46.080 87.325 0 35.555 18.774 67.982 49.21 85.902zM750.926-29.866h-648.533v307.2h648.533v-307.2zM44.651 311.466l51.2 102.4h187.165c5.12-12.23 11.946-23.892 20.196-34.132h-81.352v-34.134h409.6v34.134h-115.768c8.248 10.24 15.075 21.902 20.195 34.132h221.298l51.2-102.4h-763.733z" />
<glyph unicode="&#xe91b;" glyph-name="28" horiz-adv-x="1037" d="M799.148 37.076l39.997 38.377c19.188 17.567 19.188 47.835 1.622 67.023l-89.455 92.698c-17.567 19.188-47.835 19.188-67.023 1.622l-41.619-39.997zM259.446 576.777l49.458 47.836c19.187 17.567 19.187 47.835 1.62 67.023l-91.076 94.319c-17.567 19.188-47.835 19.188-67.023 1.622l-52.7-51.078zM557.811 551.374c19.188 17.567 31.89 31.89 39.997 39.997 11.081 14.324 19.188 27.026 24.052 41.62 4.865 12.701 8.109 27.025 8.109 41.619 0 25.404-9.459 46.213-27.026 63.78s-42.971 25.674-73.51 25.674c-28.646 0-52.699-8.108-71.887-22.431s-30.269-38.377-33.512-71.889l60.538-6.486c1.62 17.567 4.864 30.268 12.701 38.377 8.108 8.108 17.567 11.080 30.268 11.080 12.703 0 22.432-3.244 30.269-11.080 8.108-8.109 11.080-17.567 11.080-31.891 0-12.701-4.864-25.674-12.701-36.754-6.486-9.459-22.431-27.026-51.078-52.7-33.512-31.89-57.564-57.564-68.645-76.753s-19.188-39.999-20.81-60.538h214.043v57.564h-121.344c3.242 4.865 8.108 11.081 12.701 17.567 4.865 4.324 17.837 15.675 36.755 33.242zM850.227 560.833v202.692h-51.078l-138.911-202.692v-54.322h130.803v-63.78h59.186v63.78h39.999v54.322h-39.999zM791.041 560.833h-73.509l73.509 108.643v-108.643zM268.512 337.376l-28.453 28.452 28.453 28.453 28.453-28.453-28.453-28.452zM335.537 270.894l-28.452 28.453 28.452 28.453 28.453-28.453-28.453-28.453zM402.29 204.138l-28.452 28.453 28.452 28.452 28.453-28.452-28.453-28.453zM1030.488 549.751c0 226.746-183.503 410.249-410.249 410.249-148.37 0-279.444-79.726-351.332-199.448l-36.755 38.106c-24.052 25.674-65.402 25.674-91.076 1.622l-71.889-70.267c-130.804-130.804-42.971-242.689-6.486-281.066l434.572-449.976c38.376-39.997 148.37-116.48 281.066-4.864l71.887 70.266c41.62 41.62 14.324 78.104 1.622 91.077l-35.133 36.754c125.94 67.023 213.773 202.693 213.773 357.549zM829.418 131.395c6.486-6.486 17.567-27.025-1.622-44.591l-71.887-70.267c-65.403-63.78-172.424-62.159-236.205 4.865l-432.68 449.975c-31.89 31.891-107.021 124.589 4.594 234.853l71.888 70.267c17.567 17.567 38.377 6.486 44.593-1.622l89.454-92.698c6.487-6.487 19.188-25.674-1.622-44.593l-54.321-54.322c-39.999-39.997-14.323-78.103-1.622-91.076l306.47-319.442c24.052-25.676 65.402-25.676 91.076-1.622l55.944 54.321c12.701 12.703 33.512 11.081 44.591-1.622l91.347-92.428zM792.663 214.364l-31.89 31.89c-24.052 25.674-65.402 25.674-91.076 1.622l-55.944-54.322c-12.701-12.701-33.512-11.081-44.593 1.622l-306.469 319.442c-6.487 6.487-22.432 20.81 1.62 44.593l55.944 54.322c36.755 36.754 14.323 78.103 1.622 91.076l-30.269 31.89c65.403 114.859 188.369 191.612 328.902 191.612 209.178 0 378.358-169.18 378.358-378.359-0.27-145.398-84.86-272.959-206.205-335.387z" />
<glyph unicode="&#xe91c;" glyph-name="29" horiz-adv-x="2020" d="M1271.653 960c-111.489 0-213.925-53.662-275.044-142.729-61.686 89.068-164.122 142.729-275.611 142.729-182.795 0-332.202-145.495-332.202-324.738 0-44.256 9.055-90.726 27.166-137.75 6.224-16.044 24.335-24.341 40.747-18.255s24.9 23.787 18.676 39.831c-15.28 39.831-23.203 79.111-23.203 116.174 0 144.943 120.544 262.778 268.817 262.778 100.172 0 191.286-53.662 237.693-140.517 7.356-13.83 21.507-22.128 37.351-22.128 15.847 0 29.995 8.298 37.354 22.128 46.404 86.855 137.52 140.517 237.69 140.517 148.275 0 268.819-117.835 268.819-262.778 0-123.364-87.721-268.307-253.54-417.676-120.541-108.984-246.745-189.199-290.323-215.754-62.251 37.62-314.659 198.603-452.746 393.335-10.185 14.386-29.992 17.704-44.143 7.746-14.712-9.958-18.108-29.32-7.921-43.152 153.368-216.308 429.543-386.142 483.306-417.676 13.583-7.746 29.995-7.746 43.575 0 27.731 16.597 173.742 105.109 311.83 230.137 181.663 164.305 273.912 320.31 273.912 463.592 0 178.689-148.84 324.185-332.202 324.185zM208.829 447.723c49.236 0 88.851 38.724 88.851 86.855s-39.614 86.855-88.851 86.855h-119.978c-49.236 0-88.851-38.724-88.851-86.855s39.615-86.855 88.851-86.855h119.978zM63.95 534.578c0 13.276 11.319 24.341 24.901 24.341h119.978c13.582 0 24.901-11.065 24.901-24.341s-11.319-24.341-24.901-24.341h-119.978c-14.148 0-24.901 11.065-24.901 24.341zM217.883 374.701l-112.62-39.831c-45.841-16.597-69.61-66.386-53.198-111.195 16.978-44.81 67.912-68.046 113.753-52.003l112.622 39.831c45.839 16.597 69.61 66.386 53.195 111.198-16.412 45.363-67.345 68.597-113.751 52zM256.933 270.145l-112.621-39.831c-13.016-4.428-27.165 1.658-32.258 14.937-4.527 12.723 1.698 26.555 15.28 31.534l112.62 39.831c13.017 4.425 27.731-2.214 32.258-14.937 4.527-12.725-2.264-27.108-15.28-31.534zM279.001 858.209l-112.62 39.831c-45.841 16.596-96.775-6.639-113.753-52.002-16.978-44.81 7.357-94.6 53.198-111.196l112.621-39.832c22.071-7.745 46.407-6.639 67.911 2.766 21.507 9.958 37.918 27.107 45.842 49.236 16.412 44.81-7.356 94.6-53.198 111.196zM259.194 754.204c-6.225-2.766-13.016-3.319-19.242-0.553l-112.621 39.831c-13.016 4.426-19.807 18.809-15.28 31.533s19.242 19.363 32.258 14.937l112.62-40.385c6.225-2.213 11.319-6.639 14.148-12.724 6.226-12.171 0.566-27.107-11.884-32.64zM1904.363 621.432h-119.977c-49.238 0-88.853-38.724-88.853-86.855s39.615-86.855 88.853-86.855h119.977c49.235 0 88.85 38.724 88.85 86.855-0.565 48.131-40.18 86.855-88.85 86.855zM1904.363 510.237h-119.977c-13.583 0-24.903 11.065-24.903 24.341s11.319 24.341 24.903 24.341h119.977c13.583 0 24.9-11.065 24.9-24.341s-11.317-24.341-24.9-24.341zM1887.381 334.87l-112.621 39.831c-46.407 16.597-96.774-6.637-113.753-52-16.976-44.812 6.792-95.155 53.198-111.198l112.621-39.831c46.407-16.597 96.774 6.639 113.753 52.003 16.412 44.81-7.356 94.598-53.198 111.195zM1880.59 244.697c-4.528-12.725-19.24-19.362-32.256-14.937l-112.621 39.831c-13.583 4.979-19.807 19.362-14.715 32.087 5.092 12.169 19.243 18.808 31.691 13.83l112.621-39.831c13.583-3.872 20.375-18.258 15.28-30.98zM1706.853 697.774c21.504-9.958 45.839-11.064 67.911-2.766l112.621 39.831c45.839 16.597 69.61 66.386 53.198 111.196-16.979 44.811-67.913 68.045-113.753 52.002l-112.621-39.832c-45.842-16.596-69.61-66.386-53.198-111.196 7.924-22.129 24.335-39.278 45.842-49.236zM1735.713 799.566l112.621 39.831c13.019 4.426 27.731-2.213 32.259-14.937s-1.697-27.107-15.28-31.533l-112.621-39.831c-13.016-4.426-27.731 1.659-32.259 14.937-4.528 12.724 2.264 26.554 15.28 31.533z" />
<glyph unicode="&#xe91d;" glyph-name="30" horiz-adv-x="922" d="M894.554 724.026c-20.646 20.646-37.78 44.387-50.787 70.606l-51.613 103.432c-19.407 38.193-57.807 61.935-100.748 61.935-30.141 0-58.22-11.768-79.485-33.032l-14.863-14.865c-42.324 9.91-85.678 14.865-129.033 14.865h-28.904c-43.354 0-86.709-4.955-129.031-14.865l-14.865 14.865c-21.265 21.264-49.548 33.032-79.485 33.032-43.148 0-81.754-23.742-100.954-62.142l-51.613-103.432c-13.006-26.219-30.142-49.961-50.787-70.606l-12.387-12.387 26.219-23.741c95.174-85.678 162.272-196.337 194.683-320.413-16.722-52.852-31.38-106.324-43.354-160-3.302-14.659-4.954-29.524-4.954-44.593 0-54.917 21.472-106.53 60.285-145.343l15.483-15.483h66.685l-14.659 29.522c-18.58 37.367-28.489 79.072-28.489 120.774 0 19.613 2.063 39.433 6.4 58.633l10.115 45.833c8.465 38.193 21.059 75.561 36.954 111.278 13.626-26.633 22.917-55.33 27.459-85.472l48.928-318.554c2.478-16.311 16.311-28.078 32.62-28.078h37.78c16.311 0 30.141 11.767 32.62 28.078l48.93 318.554c4.541 30.141 14.037 58.839 27.457 85.472 15.898-35.717 28.491-73.085 36.954-111.278l10.117-45.833c4.335-19.2 6.4-39.020 6.4-58.633 0-41.702-9.911-83.407-28.491-120.774l-14.657-29.522h66.683l15.485 15.483c38.813 38.813 60.283 90.426 60.283 145.343 0 15.070-1.65 29.935-4.954 44.593-11.974 53.883-26.633 107.354-43.354 160 32.207 123.87 99.302 234.528 194.683 320.413l26.22 23.535-11.974 12.8zM48.31 712.465l-0.826 0.62c14.245 16.102 26.839 33.65 37.368 52.437l16.103 8.052c32 16.103 61.11 36.955 86.297 62.349 5.367 5.368 12.8 8.465 20.439 8.465 11.974 0 22.502-7.226 26.837-18.168l20.233-50.787c-10.528-21.678-16.309-45.42-16.309-69.574 0-31.38 9.289-61.937 26.633-88.156l3.715-5.78-17.961-36.128c-8.259-16.309-12.387-34.685-12.387-52.852 0-20.437 5.574-40.463 15.483-58.22l-1.237-3.509c-4.75-12.8-9.291-26.013-13.833-39.020-37.367 111.691-102.401 211.2-190.555 290.272zM256.207 263.846l-10.115-45.833c-4.75-21.472-7.226-43.767-7.226-65.652 0-40.052 8.050-80.102 23.535-117.263l-5.987 5.78c-32.62 32.618-50.58 75.974-50.58 122.013 0 12.593 1.446 25.187 4.128 37.367 17.548 79.070 40.672 157.522 68.541 233.702 9.704-10.115 18.582-20.852 26.426-32.207-21.676-43.561-38.193-90.013-48.722-137.909zM521.291 287.587l-48.93-318.554h-37.78l-48.928 318.554c-10.324 66.891-41.085 127.587-88.98 175.485-15.898 15.896-24.98 37.78-24.98 60.076 0 13.213 3.096 26.22 9.083 37.987l38.813 77.626-29.522 14.865-3.304-6.607c-9.702 18.167-14.863 38.193-14.863 58.839 0 22.915 6.193 45.213 17.961 64.826l29.315 48.722-28.283 16.929-14.659-24.361-10.53 26.426c-9.702 23.742-32.205 39.019-57.805 39.019-16.517 0-32-6.4-43.769-18.168-15.897-15.897-33.445-29.729-52.439-41.703l32.826 65.445c13.419 27.045 40.671 43.974 71.019 43.974 21.265 0 41.291-8.258 56.156-23.329l28.076-28.077 9.085 2.271c42.528 10.529 86.296 16.103 130.063 16.103h28.904c43.767 0 87.535-5.368 130.065-16.103l9.083-2.271 28.078 28.077c15.070 15.071 35.096 23.329 56.361 23.329 30.348 0 57.6-16.929 71.020-43.974l32.826-65.445c-18.993 11.974-36.543 25.806-52.439 41.703-11.767 11.768-27.252 18.168-43.767 18.168-25.393 0-48.104-15.277-57.393-39.019l-10.53-26.426-14.657 24.361-28.285-16.929 29.315-48.722c11.769-19.613 17.963-41.911 17.963-64.826 0-20.646-5.367-40.672-14.865-58.839l-3.302 6.607-29.524-14.865 38.813-77.626c5.78-11.767 9.085-24.98 9.085-37.987 0-22.296-9.085-44.387-24.98-60.076-48.311-47.898-79.072-108.593-89.393-175.485zM696.98 200.465c2.685-12.18 4.128-24.774 4.128-37.367 0-46.039-17.961-89.393-50.58-122.013l-5.78-5.78h-0.207c15.485 36.954 23.537 77.211 23.537 117.263 0 22.091-2.478 44.18-7.226 65.652l-10.117 45.833c-10.528 47.896-27.044 94.141-48.722 138.115 7.846 11.354 16.722 21.885 26.426 32.207 27.87-76.387 50.993-154.839 68.541-233.909zM858.426 712.465c-87.948-79.278-153.187-178.787-190.761-290.272-4.543 13.007-9.085 26.013-13.833 39.020l-1.239 3.509c9.909 17.55 15.485 37.782 15.485 58.22 0 18.167-4.337 36.543-12.387 52.852l-17.963 36.128 3.717 5.78c17.548 26.22 26.633 56.776 26.633 88.156 0 24.154-5.78 47.896-16.311 69.574l20.233 50.787c4.335 10.942 14.865 18.168 26.839 18.168 7.639 0 15.070-3.097 20.439-8.465 25.393-25.393 54.296-46.245 86.502-62.349l16.104-8.052c10.735-18.787 23.122-36.335 37.367-52.437l-0.826-0.62zM337.754 712.259h-33.031v-33.033h33.031v33.033zM602.013 712.259h-33.033v-33.033h33.033v33.033zM379.872 594.993l14.657-29.522c0.207 0.207 30.143 14.863 58.633 14.863 28.491 0 58.426-14.657 58.633-14.863l14.659 29.522c-1.446 0.826-36.956 18.167-73.498 18.167-36.128 0-71.433-17.548-73.083-18.167zM379.872 528.928l14.657-29.522c0.207 0.207 30.143 14.865 58.633 14.865 28.491 0 58.426-14.659 58.633-14.865l14.659 29.522c-1.446 0.826-36.956 18.169-73.498 18.169-36.128 0-71.433-17.55-73.083-18.169zM379.872 462.865l14.657-29.524c0.207 0.207 30.143 14.865 58.633 14.865 28.491 0 58.426-14.659 58.633-14.865l14.659 29.524c-1.446 0.826-36.956 18.167-73.498 18.167-36.128 0-71.433-17.548-73.083-18.167z" />
<glyph unicode="&#xe91e;" glyph-name="31" horiz-adv-x="1075" d="M1070.208 452.75c-3.338 4.878-8.728 7.958-14.633 7.958h-10.781c-47.234 0-92.414-22.591-120.139-59.556l-142.471-164.292c-14.119 22.589-39.020 37.736-67.514 37.736h-137.851c1.026 10.525 2.567 26.44 3.85 46.72 8.728 64.947 25.928 116.287 45.181 156.076 22.589-8.47 43.639-12.834 62.892-12.834 22.589 0 42.614 5.903 60.326 17.456 83.686 54.678 76.242 218.457 75.986 225.388-0.514 8.986-7.444 16.172-16.43 16.686-97.804 5.391-165.832-16.43-201.771-64.689-49.545-66.487-18.483-156.334-16.942-160.184 0.77-2.311 2.311-4.622 4.106-6.419-4.62-9.498-9.24-19.767-13.348-30.548-1.027 14.889-2.311 30.292-4.108 45.95-10.011 86.767-31.831 159.159-64.433 215.89 28.495 62.636 29.266 114.491 2.569 154.794-60.839 90.617-239.764 81.119-247.465 80.606-8.986-0.513-15.916-7.701-16.43-16.686-4.876-106.79 19.511-180.721 72.392-219.483 31.319-22.847 67-29.522 98.062-29.522 26.184 0 49.031 4.878 62.892 8.472 66.231-120.139 66.488-291.362 61.353-379.412-2.053-15.145-3.594-31.317-4.62-48.003-33.886 1.283-66.487 11.039-94.467 28.495-41.844 25.928-109.1 60.583-192.787 79.322-148.633 33.114-246.181-94.211-250.288-99.603-2.31-3.081-3.594-6.673-3.594-10.525v-170.452c0-8.986 6.674-16.43 15.659-17.456l54.422-5.391c64.947-6.417 128.354-22.847 188.165-49.031l165.318-71.878c34.656-15.145 71.878-22.589 109.358-22.589 34.654 0 69.309 6.417 101.654 19.509l131.948 52.881 22.589 5.647c68.028 16.944 125.273 65.461 153.511 129.381l129.123 293.158c2.309 5.391 2.053 11.552-1.283 16.43zM634.834 638.604c26.697 35.939 79.066 53.139 155.564 51.342-0.258-50.058-11.039-146.065-60.583-178.412-22.333-14.631-51.598-15.401-87.537-2.823 38.764 64.689 79.578 89.076 80.864 89.847 8.47 4.62 11.295 15.403 6.673 23.873-4.62 8.472-15.403 11.295-23.873 6.675-3.338-1.797-47.234-27.467-89.334-94.211-4.622 26.441-6.931 70.081 18.225 103.709zM343.987 751.555c-40.303 29.522-60.070 88.051-58.53 173.534 54.936 0.77 163.009-10.268 199.718-65.46 16.942-25.157 17.969-58.786 3.337-99.859-29.52 39.277-65.459 68.541-107.559 86.767-8.728 3.851-19.253-0.257-23.103-8.985s0.256-19.253 8.984-23.103c40.817-17.969 72.905-46.463 97.55-81.119-28.495-5.905-80.606-11.039-120.395 18.225zM910.793 157.537c-23.875-54.164-72.392-95.237-129.893-109.614l-23.875-5.903c-0.77-0.258-1.539-0.514-2.311-0.77l-132.973-53.139c-58.786-23.617-126.042-22.589-184.057 2.825l-165.32 71.876c-63.15 27.469-129.893 44.925-198.433 51.855l-38.506 3.85v148.376c17.456 20.536 98.575 107.047 211.012 82.147 78.809-17.456 142.473-50.314 182.006-74.959 35.939-22.333 77.781-33.886 121.165-33.886h165.318c24.644 0 44.411-20.023 44.411-44.409 0-24.644-20.023-44.411-44.411-44.411h-230.779c-33.884 0-67.256-5.391-99.087-16.172l-0.771-0.256 5.391-16.686 6.419-16.43c28.493 9.499 58.015 14.375 88.049 14.375h230.779c43.897 0 79.578 35.683 79.578 79.58 0 0.77 0 1.283 0 2.053l157.875 182.004c18.483 24.644 46.206 40.817 76.242 45.181l-117.828-267.488z" />
<glyph unicode="&#xe91f;" glyph-name="32" d="M300.8 231.999c-3.732-3.732-5.868-8.8-5.868-14.133s2.135-10.4 5.868-14.133c3.734-3.734 8.8-5.866 14.133-5.866s10.4 2.132 14.135 5.866c3.732 3.732 5.866 8.8 5.866 14.133s-2.133 10.4-5.866 14.133c-3.734 3.734-8.801 5.868-14.135 5.868-5.067 0-10.399-2.133-14.133-5.868zM947.465 886.4c-49.067 48.533-114.4 74.667-183.467 73.6-65.333-1.067-127.466-26.933-174.665-72.8-47.201-46.133-74.667-107.467-77.334-172.799-4-103.2 54.934-198.934 147.734-242.401v-48.532c0-26.134 21.333-47.468 47.466-47.468h40.533v-28.266c-10.132-0.8-20-3.734-28.8-9.068-15.734-9.066-26.933-23.733-31.734-41.332l-12.532-46.401c-3.2-11.733-2.934-23.467-0.268-34.4-11.733-2.934-22.666-9.068-31.466-17.867l-33.867-33.867c-11.467-11.465-18.133-26.132-19.732-41.866-16 3.2-32.534 0.534-46.933-7.733l-41.6-24.001c-11.733-6.932-21.067-16.799-26.935-28.8-5.333 3.2-11.199 5.601-17.333 7.467l-46.399 12.534c-12.268 3.2-24.801 3.2-36.801-0.532l-12 45.066 37.6 10.132c25.334 6.668 40.267 32.8 33.601 58.134l-12.534 46.667c49.333 41.6 81.867 100.799 89.6 165.065 1.333 10.935-6.4 21.067-17.333 22.4-10.933 1.335-21.067-6.4-22.4-17.333-7.2-57.866-38.134-111.466-84.801-146.4-6.4-4.801-9.334-13.334-7.2-21.067l16-59.467c1.067-3.999-1.333-7.999-5.333-9.066l-116.533-31.734c-2.666-0.8-4.799 0.266-5.6 0.8-1.067 0.532-2.934 1.867-3.466 4.533l-16 59.467c-2.133 7.999-8.801 13.6-16.8 14.667-90.4 10.933-164.8 78.133-184.8 166.932-25.333 111.734 43.467 224.266 153.601 255.734 7.467 1.867 17.333 1.333 23.999-2.668 6.934-3.999 12-10.399 13.867-18.133 4.267-16-5.333-32.532-21.333-36.799-83.2-22.134-132.533-108-110.4-190.933 18.667-69.6 81.866-115.734 150.667-115.734 13.332 0 26.933 1.601 40.267 5.333 83.2 22.134 132.533 108.001 110.399 190.933-17.067 63.734-71.467 107.733-133.333 114.668 5.067 13.332 6.134 28 2.133 42.667-1.599 6.4-4.267 12.266-7.467 17.599 62.133-3.732 121.868-34.133 160.534-85.6 6.666-8.8 19.2-10.667 28-4 8.8 6.668 10.667 19.2 4 28.001-30.667 40.8-72.533 71.199-121.068 87.999-49.599 17.333-102.666 18.668-153.334 4.267-62.932-17.867-116.266-58.933-149.866-115.732-33.6-56.267-44.267-122.667-29.6-186.4 22.667-100.801 104.533-178.133 205.6-195.734l12.534-46.665c3.2-12.268 11.199-22.4 22.132-28.8 7.2-4.267 15.468-6.4 23.735-6.4 3.999 0 8.265 0.532 12.266 1.599l40.533 10.933 15.734-58.933c-5.333-6.932-9.334-14.933-11.467-23.733-9.6-36.267 11.733-73.6 48-83.2l46.401-12.534c5.866-1.599 11.733-2.4 17.599-2.4 25.6 0 49.601 14.667 61.066 37.866 10.667-6.4 22.668-9.866 35.2-9.866 11.467 0 23.2 2.934 33.867 9.068l41.6 23.999c19.734 11.467 31.734 31.468 33.601 52.801 4.267-0.8 8.533-1.335 13.066-1.335 18.133 0 35.2 6.934 48 20l33.867 33.867c12.8 12.8 19.999 29.867 19.999 48 0 5.866-0.799 11.467-2.133 17.067 22.934 5.866 42.4 23.733 49.067 48.266l12.534 46.401c4.801 17.599 2.4 35.732-6.666 51.466-5.868 10.132-14.133 18.4-24.001 24.267v38.132h40.533c26.134 0 47.468 21.333 47.468 47.468v48.532c41.334 19.2 76.8 49.335 102.932 87.2 29.334 42.667 45.068 92.8 45.068 144.8-0.534 69.067-27.733 133.866-77.068 182.4zM255.998 554.132c51.2 0 98.133-34.133 112-85.866 16.534-61.867-20.267-125.6-82.133-142.133-61.867-16.534-125.6 20.267-142.133 82.133s20.267 125.599 82.133 142.133c10.132 2.4 20.267 3.732 30.133 3.732zM466.398-3.2c-3.999-14.933-19.466-23.733-34.4-19.734l-46.399 12.534c-14.933 4-23.735 19.466-19.734 34.4 1.867 7.2 6.668 13.334 13.068 17.067 4.267 2.401 9.066 3.734 13.865 3.734 2.401 0 4.801-0.266 7.2-1.067l46.401-12.534c15.2-4 23.999-19.466 19.999-34.4zM590.932 32l-41.6-24.001c-13.332-7.733-30.399-3.2-38.134 10.134-3.732 6.4-4.799 14.133-2.666 21.333 1.867 7.2 6.666 13.332 13.066 17.067l41.6 23.999c4.267 2.401 9.068 3.734 13.867 3.734 2.4 0 4.801-0.266 7.2-1.067 7.2-1.867 13.332-6.666 17.067-13.066 7.467-13.334 2.934-30.401-10.4-38.134zM711.465 130.934l-34.133-33.867c-5.333-5.333-12.266-8.267-19.732-8.267s-14.401 2.934-19.734 8.267c-5.333 5.333-8.267 12.266-8.267 19.732s2.934 14.401 8.267 19.734l33.867 33.867c5.333 5.333 12.266 8.265 19.732 8.265s14.401-2.932 19.734-8.265c5.333-5.333 8.267-12.268 8.267-19.734s-2.668-14.399-8.001-19.732zM780.266 272.8l-12.534-46.401c-4-14.933-19.466-23.733-34.4-19.732-14.933 3.999-23.735 19.466-19.734 34.4l12.534 46.399c1.867 7.2 6.666 13.334 13.066 17.067 4.267 2.401 9.068 3.734 13.867 3.734 2.4 0 4.801-0.266 7.2-1.067 7.2-1.867 13.332-6.666 17.067-13.066 3.732-6.668 4.799-14.135 2.934-21.333zM766.399 920c-0.268 0-0.8 0 0 0v0zM848.532 503.467c-7.467-2.934-12.534-10.4-12.534-18.668v-61.599c0-4.267-3.466-7.467-7.467-7.467h-121.068c-3.999 0-7.467 3.466-7.467 7.467v61.599c0 8.267-5.065 15.468-12.532 18.668-84.535 34.133-138.935 118.134-135.2 209.067 4.533 114.4 99.466 205.6 214.134 207.2 0.266 0 0.266 0 0.266 0 16.532-0.267 31.466-13.6 31.466-29.867 0-16.533-13.332-29.867-30.133-29.867-86.134 0-156-69.867-156-156s69.866-156 156-156c86.134 0 156 69.866 156 156 0 65.867-41.066 122.4-99.2 145.333 8.267 11.467 13.068 25.6 13.068 40.8 0 6.667-1.067 13.067-2.668 19.467 31.2-10.133 60-27.733 84.267-51.467 41.6-41.333 64.534-96.001 64.534-154.133 0-88.533-53.067-167.2-135.467-200.533zM883.999 704c0-64-52-116-116-116s-116 52-116 116c0 64 52 116 116 116s116-52 116-116zM768 496c-5.333 0-10.4-2.133-14.133-5.866s-5.868-8.801-5.868-14.135 2.133-10.4 5.868-14.133c3.732-3.734 8.8-5.866 14.133-5.866s10.4 2.132 14.133 5.866c3.734 3.732 5.868 8.8 5.868 14.133s-2.133 10.4-5.868 14.135c-3.732 3.732-8.8 5.866-14.133 5.866zM469.866 485.067c3.734-3.734 8.801-5.868 14.135-5.868s10.4 2.133 14.133 5.868c3.734 3.732 5.866 8.8 5.866 14.133s-2.132 10.4-5.866 14.133c-3.732 3.734-8.8 5.868-14.133 5.868s-10.4-2.133-14.135-5.868c-3.732-3.732-5.866-8.8-5.866-14.133s2.133-10.4 5.866-14.133z" />
<glyph unicode="&#xe920;" glyph-name="33" d="M501.688 287.387c-60.585 0-109.568-45.889-109.568-102.091 0-26.812 15.727-42.795 42.281-42.795 12.116 0 25.521 3.094 38.154 6.187 10.571 2.579 21.656 4.898 29.391 4.898 6.702 0 17.015-2.319 27.069-4.898 13.148-3.092 26.812-6.187 39.444-6.187 26.812 0 43.052 15.983 43.052 42.795-0.258 56.202-49.498 102.091-109.824 102.091zM575.162 178.594c0 0-1.546-1.031-6.702-1.031-8.508 0-20.367 2.835-31.712 5.414-12.631 2.836-24.491 5.671-35.060 5.671-11.602 0-24.492-3.094-37.125-5.929-10.827-2.579-22.171-5.156-30.42-5.156-4.383 0-5.931 0.773-5.931 0.773s-1.031 1.804-1.031 6.96c0 36.867 33.516 67.029 74.506 67.029 41.248 0 74.505-30.162 74.505-67.029 0-4.383-0.773-6.187-1.031-6.702zM447.034 320.903c0 30.937-21.398 55.943-47.695 55.943s-47.695-25.006-47.695-55.943c0-30.937 21.398-55.945 47.695-55.945s47.695 25.008 47.695 55.945zM386.707 320.903c0 11.858 6.704 20.881 12.633 20.881s12.633-9.023 12.633-20.881c0-11.86-6.704-20.883-12.633-20.883s-12.633 8.765-12.633 20.883zM504.781 299.505c26.296 0 47.695 25.006 47.695 55.943s-21.398 55.945-47.695 55.945c-26.296 0-47.693-25.008-47.693-55.945s21.396-55.943 47.693-55.943zM504.781 376.33c5.931 0 12.633-9.023 12.633-20.883 0-11.858-6.702-20.881-12.633-20.881-5.929 0-12.633 9.023-12.633 20.881 0 12.117 6.704 20.883 12.633 20.883zM610.227 376.846c-26.296 0-47.695-25.006-47.695-55.943s21.398-55.945 47.695-55.945c26.296 0 47.695 25.008 47.695 55.945s-21.398 55.943-47.695 55.943zM610.227 300.020c-5.929 0-12.633 9.023-12.633 20.883 0 11.858 6.704 20.881 12.633 20.881s12.633-9.023 12.633-20.881c0-12.117-6.704-20.883-12.633-20.883zM993.58 611.19l-451.673 337.725c-9.539 7.219-21.14 11.086-33 11.086h-0.773c-0.258 0-0.258 0-0.258 0h-1.031c-12.117 0-23.46-3.867-32.998-11.086l-451.675-337.725c-24.491-18.304-29.39-52.849-11.086-77.341l37.897-50.529c10.312-13.921 26.812-22.171 44.342-22.171 8.765 0 17.273 2.062 25.007 5.929v-475.907c0-30.42 24.749-55.17 55.171-55.17h669.003c30.42 0 55.17 24.75 55.17 55.17v476.165c7.735-3.867 16.241-5.929 25.006-5.929 17.273 0 33.773 8.25 44.343 22.171l37.898 50.529c18.046 24.235 13.148 59.037-11.344 77.083zM842.508-28.938h-669.261c-11.086 0-20.109 9.023-20.109 20.108v501.173l354.739 265.281 354.739-265.281v-501.173c0-11.085-9.023-20.108-20.108-20.108zM976.823 554.989l-37.897-50.529c-3.867-5.158-9.796-7.992-16.242-7.992-4.383 0-8.506 1.289-12.116 4.125l-392.122 293.123c-3.092 2.32-6.702 3.609-10.569 3.609-3.61 0-7.477-1.289-10.569-3.609l-392.121-293.381c-3.609-2.579-7.734-4.125-12.117-4.125-6.445 0-12.375 2.835-16.242 7.992l-37.897 50.529c-6.703 9.023-4.898 21.656 4.125 28.358l451.673 337.724c3.352 2.578 7.735 3.867 12.117 3.867 0.258 0 0.258 0 0.515 0h1.031c0.258 0 0.515 0 0.515 0 4.383 0 8.508-1.289 12.117-3.867l451.674-337.724c8.764-6.444 10.569-19.077 4.123-28.1zM637.553 530.239c-49.756 0-95.903-19.85-129.676-55.17-33.772 35.319-80.177 55.17-129.676 55.17-99.255 0-180.205-80.951-180.205-180.205 0-46.404 16.5-93.068 48.983-138.699 25.265-35.577 60.327-70.637 104.153-104.41 73.991-56.975 146.691-89.974 149.786-91.262 2.319-1.033 4.64-1.548 7.217-1.548 2.063 0 4.383 0.515 6.446 1.29 3.092 1.289 76.052 29.904 150.299 84.818 44.085 32.483 79.147 67.545 104.41 103.895 32.485 46.662 48.725 95.645 48.725 145.917-0.258 99.512-80.951 180.205-180.463 180.205zM508.392 50.722c-42.795 20.883-275.335 141.020-275.335 299.312 0 79.92 65.224 145.143 145.143 145.143 45.891 0 88.17-20.881 115.755-57.747 3.352-4.383 8.508-6.961 13.921-6.961s10.571 2.579 13.921 6.961c27.843 36.608 69.866 57.747 115.755 57.747 79.92 0 145.143-65.224 145.143-145.143 0-172.986-231.25-280.748-274.304-299.312z" />
<glyph unicode="&#xe921;" glyph-name="34" d="M512 960c-40.395 0-73.143-32.747-73.143-73.143v-365.714h-365.714c-40.396 0-73.143-32.747-73.143-73.143s32.747-73.143 73.143-73.143h365.714v-365.715c0-40.397 32.748-73.143 73.143-73.143s73.143 32.746 73.143 73.143v365.715l365.714 0.001c40.397 0 73.143 32.747 73.143 73.143s-32.746 73.143-73.143 73.143l-365.714-0.001v365.714c0 40.396-32.748 73.143-73.143 73.143z" />
<glyph unicode="&#xe922;" glyph-name="35" horiz-adv-x="7168" d="M7168 448c0-282.77-229.23-512-512-512h-6144c-282.77 0-512 229.23-512 512s229.23 512 512 512h6144c282.77 0 512-229.23 512-512z" />
<glyph unicode="&#xe923;" glyph-name="36" horiz-adv-x="1408" d="M64 512c-35.346 0-64-28.654-64-64s28.654-64 64-64v128zM1389.254 402.745c24.992 24.994 24.992 65.516 0 90.509l-407.296 407.294c-24.992 24.994-65.51 24.994-90.509 0-24.992-24.994-24.992-65.516 0-90.51l362.042-362.038-362.042-362.042c-24.992-24.992-24.992-65.51 0-90.509 24.998-24.992 65.517-24.992 90.509 0l407.296 407.295zM64 384h1280v128h-1280v-128z" />
<glyph unicode="&#xe924;" glyph-name="37" horiz-adv-x="1408" d="M1344 512c35.347 0 64-28.654 64-64s-28.653-64-64-64v128zM18.745 402.745c-24.994 24.994-24.994 65.516 0 90.509l407.293 407.294c24.994 24.994 65.516 24.994 90.51 0s24.993-65.516 0-90.51l-362.039-362.038 362.039-362.042c24.993-24.992 24.993-65.51 0-90.509-24.994-24.992-65.516-24.992-90.509 0l-407.294 407.295zM1344 384h-1280v128h1280v-128z" />
<glyph unicode="&#xe925;" glyph-name="38" d="M512 960c-282.579 0-512-229.421-512-512s229.421-512 512-512c282.579 0 512 229.421 512 512s-229.421 512-512 512zM512 47.91c-221.027 0-400.088 179.059-400.088 400.090 0 221.027 179.060 400.088 400.088 400.088 221.030 0 400.090-179.060 400.090-400.088 0-221.030-179.059-400.090-400.090-400.090zM489.625 702.25c35.347 0 64-28.654 64-64v-186.582c0.443-0.287 0.91-0.588 1.405-0.906l119.594-76.938c29.728-19.123 38.323-58.726 19.2-88.448-19.123-29.728-58.724-38.323-88.45-19.2l-119.596 76.938c-0.166 0.107-0.337 0.216-0.511 0.329-6.013 3.866-17.215 11.067-27.35 20.696-11.039 10.488-24.365 27.073-29.716 50.9-1.7 7.567-2.575 15.352-2.575 23.22v199.991c0 35.346 28.654 64 64 64z" />
<glyph unicode="&#xe926;" glyph-name="39" horiz-adv-x="896" d="M416 384c88.178 0 160 71.822 160 160s-71.822 160-160 160c-88.178 0-160-71.822-160-160s71.822-160 160-160zM416 597.333c29.511 0 53.333-23.822 53.333-53.333s-23.822-53.333-53.333-53.333c-29.511 0-53.333 23.822-53.333 53.333s23.822 53.333 53.333 53.333zM837.818 541.091c0 230.865-188.045 418.909-418.909 418.909s-418.909-188.044-418.909-418.909c0-91.229 28.858-178.114 83.471-251.037l223.729-298.202c26.376-35.066 67.956-55.853 111.709-55.853s85.644 20.787 111.709 55.853l223.417 298.202c54.925 72.923 83.782 159.807 83.782 251.037zM679.872 345.91l-223.416-297.891c-8.998-11.789-22.652-18.618-37.236-18.618-14.894 0-28.237 6.829-37.236 18.618l-223.418 298.202c-43.132 56.164-65.474 123.811-65.474 194.87 0 179.665 146.152 325.818 325.818 325.818s325.821-146.152 325.821-325.818c0-71.060-22.342-138.706-64.858-195.181z" />
<glyph unicode="&#xe927;" glyph-name="40" horiz-adv-x="1195" d="M85.333 512c-35.346 0-64-28.654-64-64s28.654-64 64-64v128zM1154.586 402.745c24.994 24.993 24.994 65.516 0 90.51l-407.291 407.293c-24.993 24.994-65.516 24.994-90.51 0s-24.993-65.516 0-90.51l362.035-362.039-362.035-362.035c-24.993-24.994-24.993-65.519 0-90.513s65.516-24.994 90.51 0l407.291 407.293zM85.333 384h1024v128h-1024v-128z" />
<glyph unicode="&#xe928;" glyph-name="41" horiz-adv-x="819" d="M703.862 467.058c-55.091 0-100.094-45.003-100.094-100.094 0-48.365 34.434-88.883 80.075-98.173v-120.272c0-45.804-17.937-89.044-50.606-121.714-32.671-32.671-75.752-50.608-121.554-50.608-45.804 0-88.885 17.937-121.554 50.608-32.671 32.671-50.608 75.911-50.608 121.714v121.714c23.221 8.168 40.037 30.428 40.037 56.533v22.1h9.929c11.051 0 20.019 8.969 20.019 20.019v60.856c47.244 13.133 90.325 38.117 125.558 72.709 54.77 53.97 85.040 125.397 85.040 201.148v44.042c0 40.678-16.176 78.794-45.483 107.621-8.808 8.648-18.577 16.175-28.988 22.421 0 0.801 0 1.441 0 2.242 0 44.201-35.874 80.075-80.075 80.075-44.041 0-80.075-35.874-80.075-80.075s35.874-80.075 80.075-80.075c28.506 0 53.972 14.734 68.064 37.956 4.485-3.363 8.808-6.886 12.812-10.89 21.622-21.3 33.473-49.325 33.473-79.114v-44.042c0-65.021-25.945-126.198-73.030-172.641-27.706-27.226-61.017-47.404-97.531-59.416v37.635c0 11.051-8.969 20.019-20.019 20.019h-140.131c-11.051 0-20.019-8.969-20.019-20.019v-37.315c-36.193 12.012-69.184 32.189-96.73 59.095-46.604 46.123-72.548 107.46-72.548 172.481v44.042c0 29.788 11.851 57.974 33.471 79.114 4.004 4.004 8.328 7.687 12.812 10.89 14.253-23.062 39.557-37.956 68.064-37.956 44.201 0 80.075 35.874 80.075 80.075s-35.874 80.075-80.075 80.075c-43.881 0.16-79.755-35.713-79.755-79.915 0-0.801 0-1.441 0-2.242-10.41-6.246-20.179-13.773-28.987-22.421-29.307-28.827-45.482-67.103-45.482-107.621v-44.042c0-75.75 30.108-147.178 85.040-201.148 34.913-34.432 77.833-59.255 124.758-72.549v-61.017c0-11.051 8.969-20.019 20.017-20.019h9.929v-22.1c0-26.105 16.816-48.365 40.038-56.533v-121.714c0-56.533 22.101-109.863 62.298-150.060 40.197-40.199 93.367-62.459 149.9-62.459 56.373 0 109.703 22.101 149.741 62.459 40.197 40.197 62.298 93.527 62.298 150.060v120.272c45.641 9.289 80.075 49.807 80.075 98.173-0.16 55.091-45.003 100.094-100.255 100.094zM504.796 871.117c0-0.16 0-0.16 0-0.16 0-0.16 0-0.16 0-0.32-4.164-17.937-20.5-30.909-38.917-30.909-22.101 0-40.038 17.937-40.038 40.198 0 22.101 17.937 40.198 40.038 40.198s40.037-17.937 40.037-40.198c-0.159-3.043-0.48-5.926-1.12-8.808zM174.406 919.962c22.1 0 40.037-17.937 40.037-40.198 0-22.101-17.937-40.198-40.037-40.198-18.578 0-34.913 12.972-39.077 31.229v0.16c-0.641 2.722-0.961 5.765-0.961 8.808 0 22.261 17.937 40.198 40.038 40.198zM269.694 388.905v100.253h100.094v-100.253h-100.094zM319.662 306.748c-11.051 0-20.019 8.969-20.019 20.019v22.1h40.038v-22.1c0-11.051-8.969-20.019-20.019-20.019zM703.862 306.748c-33.15 0-60.056 26.906-60.056 60.216 0 33.15 26.906 60.216 60.056 60.216 33.152 0 60.056-27.066 60.056-60.216 0-33.311-26.904-60.216-60.056-60.216z" />
<glyph unicode="&#xe929;" glyph-name="42" d="M989.863 396.8h-166.4c-9.066 0-17.599 3.734-24.265 10.134l-21.067 21.065c-12.8 12.8-30.133 20-48.266 20h-64.268v214.134c21.067-6.4 40.801-16.8 58.4-30.401 12.534-9.866 30.133-9.866 42.667 0 58.4 46.135 139.201 50.668 202.4 11.467 11.467-6.934 25.866-6.666 36.799 0.8 11.201 7.467 16.8 20.799 14.667 33.867-26.4 161.066-201.066 282.132-406.134 282.132-205.066 0-379.733-121.067-406.132-281.866-2.133-13.066 3.466-26.4 14.665-33.867 10.935-7.467 25.6-7.733 36.801-0.8 63.2 39.2 144 34.668 202.4-11.467 12.532-9.866 30.133-9.866 42.667 0 17.333 13.6 37.333 24.001 58.399 30.401v-214.4h-34.133c-28.266 0-51.2-22.934-51.2-51.2 0-8.8 2.401-17.599 6.934-25.334-14.933-9.332-24.001-25.6-24.001-43.199 0-17.601 9.068-33.867 24.001-43.201-4.533-7.467-6.934-16.266-6.934-25.066 0-23.2 15.734-43.201 37.868-49.333-6.4-15.734-4.533-33.601 5.067-47.734s25.332-22.4 42.399-22.4v-68.267c0-28.268 22.934-51.2 51.2-51.2 28.268 0 51.2 22.932 51.2 51.2v68.267h51.2c14.667 0 29.068 4.799 41.068 13.599l41.066 30.667c5.868 4.267 13.068 6.668 20.535 6.934h170.667c18.932 0 34.133 15.2 34.133 34.133v136.8c-0.268 18.934-15.468 34.133-34.401 34.133zM986.931 672.532c-66.668 41.334-150.934 42.134-218.667 1.867-1.067 83.2-11.201 184.8-60.001 242.134 145.601-29.333 258.934-124.266 278.668-244.001zM241.864 672.532c19.734 119.734 133.067 214.668 278.4 244.001-48.8-57.333-58.933-158.934-60-242.134-32.534 19.2-69.6 29.6-107.467 29.6-39.2 0-77.6-10.933-110.933-31.468zM494.397 666.4c0.266 62.399 6.134 182.133 57.334 233.866 34.932 33.867 90.399 33.867 125.332 0 51.466-52 57.068-171.467 57.334-233.866-72.267 50.133-168.001 50.133-240 0zM597.33 669.066c5.601 0.534 11.201 0.8 17.067 0.8 5.868 0 11.467-0.266 17.067-0.8v-221.066h-34.133v221.066zM511.997 311.467c-9.332 0-17.067 7.733-17.067 17.067 0.268 9.334 7.735 16.8 17.067 17.067h68.267v-34.133h-68.267zM529.063 413.867h54.4c-2.133-5.6-3.2-11.199-3.2-17.067v-17.067h-51.2c-9.332 0-17.067 7.733-17.067 17.067s7.735 17.067 17.067 17.067zM529.063 277.333h51.2v-17.067c0-5.868 1.067-11.733 3.2-17.067h-54.4c-9.332 0-17.067 7.733-17.067 17.067 0.268 9.334 7.735 16.8 17.067 17.067zM546.13 192c0 9.334 7.735 17.067 17.067 17.067h68.267c9.334 0 17.067-7.733 17.067-17.067s-7.733-17.067-17.067-17.067h-68.267c-9.332 0-17.067 7.733-17.067 17.067zM631.463 72.533c0-9.334-7.733-17.067-17.067-17.067-9.332 0-17.067 7.733-17.067 17.067v68.267h34.133v-68.267zM989.863 226.133h-170.667c-14.665 0-29.066-4.799-41.066-13.6l-41.068-30.667c-5.866-4.533-13.066-6.666-20.533-6.932h-37.333c6.666 17.599 2.668 37.333-10.132 51.2 8.533 9.334 13.332 21.6 13.332 34.133v85.333c0 9.334-7.733 17.067-17.067 17.067s-17.067-7.733-17.067-17.067v-85.333c0-9.334-7.733-17.067-17.067-17.067s-17.067 7.733-17.067 17.067v136.533c0 9.334 7.733 17.067 17.067 17.067h98.4c9.068 0 17.601-3.734 24.267-10.134l21.067-21.065c12.8-12.8 30.133-20 48.266-20h166.4v-136.533h0.266zM247.465 601.6c-58.933-0.266-107.467-46.933-110.133-105.866-2.667-58.935 41.334-109.867 100.001-115.468-6.402-14.933-7.467-31.732-3.2-47.466l5.866-20-25.334-33.865c-18.932 12.8-42.132 17.865-64.533 14.133-32.533-6.134-58.933-29.334-69.6-60.8l-2.4-6.934c-26.667-3.999-45.6-28-43.733-54.932 1.067-10.935 5.6-21.067 13.067-29.068l-44-123.199c-6.667-19.2-3.467-40.267 8.267-56.8 10.667-15.734 28.533-25.068 47.467-25.334 25.333 0 48.267 16 56.8 39.733l50.933 143.468 49.334-116.535c17.067-40.533 56.8-66.666 100.799-66.666 60.001 0.8 108.534 49.333 109.334 109.332v78.401c-2.668 89.334-22.4 177.067-58.4 258.934-7.467 16-20.533 28.8-36.799 35.732 28.532 32.8 34.932 79.2 17.067 118.666-17.867 39.467-57.334 64.534-100.801 64.534zM170.665 490.667c0 42.4 34.4 76.8 76.8 76.8s76.8-34.4 76.8-76.8c0-42.4-34.4-76.8-76.8-76.8s-76.8 34.4-76.8 76.8zM155.732 259.2c13.333 2.4 26.933-0.534 38.4-7.733l-13.867-18.668c-3.2-4.267-8.267-6.932-13.6-6.932h-51.734c7.2 17.333 22.4 29.867 40.8 33.333zM73.065 186.132c3.2 3.468 7.467 5.601 12.267 5.868h81.067c16 0 31.2 7.733 41.068 20.533l69.065 92.268c2.934 4 7.467 6.4 12.534 6.932 6.934 0.534 13.334-3.2 16.534-9.6 2.932-6.132 2.133-13.6-2.668-18.934l-73.334-97.865c-12.8-17.067-33.067-27.201-54.666-27.201h-87.733c-9.333-0.266-17.6 6.4-18.933 15.468-0.267 4.533 1.6 9.332 4.8 12.532zM83.998-12.8c-3.733-10.4-13.6-17.067-24.533-17.067-8 0-15.467 4.267-19.733 10.933-5.333 7.467-6.933 16.8-4 25.6 0 0.266 29.6 82.934 42.133 118.134 3.2-0.534 6.4-0.8 9.6-0.8h45.333l-48.8-136.8zM392.532 123.733v-78.401c-1.067-41.066-34.133-74.132-75.199-75.199-30.135 0-57.6 18.133-69.333 45.867l-47.201 111.2c16.8 4.535 32.266 13.068 44.8 25.068l21.333-52c2.4-5.6 7.467-9.866 13.6-10.667s12.268 1.601 16 6.666c3.732 4.801 4.533 11.467 2.133 17.067l-28.266 69.067 60.266 80.266c15.468 20.267 14.133 48.534-3.2 67.2-10.4 10.933-25.334 16.534-40.267 15.468-6.666-0.534-13.332-2.401-19.466-5.333l-0.534 2.133c-4.267 16.532 2.401 33.865 16.8 42.933 9.334 5.6 20.535 6.934 30.933 3.732 10.134-3.2 18.4-10.399 22.934-20.267 33.067-77.332 51.732-160.532 54.666-244.799z" />
<glyph unicode="&#xe92a;" glyph-name="43" d="M999.226 356.61c-24.499 33.584-67.166 48.722-107.354 38.538v69.367c18.167 0 33.033 14.865 33.033 33.033v99.096c0 18.167-14.865 33.033-33.033 33.033h-178.925c54.779 37.712 101.574 85.608 138.185 141.213 15.689 22.572 24.223 49.273 24.223 76.8 0 24.224-7.982 47.897-22.296 67.441-23.398 31.656-61.937 48.723-101.299 44.594-190.211-22.297-262.055-152.499-289.307-246.641-27.252 94.142-99.098 224.344-289.307 246.366-39.364 4.129-77.902-12.938-101.3-44.593-14.314-19.544-22.297-42.942-22.297-67.441 0-27.527 8.533-54.228 24.224-76.799 36.611-55.33 83.407-103.226 138.186-140.938h-178.926c-18.168 0-33.032-14.865-33.032-33.033v-99.096c0-18.167 14.865-33.033 33.032-33.033v-478.967c0-27.252 22.297-49.55 49.548-49.55h759.741c27.252 0 49.55 22.298 49.55 49.55v105.979l86.984 83.681c47.346 43.493 58.633 113.41 27.527 169.841-1.927 4.128-4.403 7.707-7.156 11.561zM891.872 596.644v-99.096h-330.324v99.096h330.324zM233.153 422.124c8.533 66.34 48.722 124.972 118.915 174.52h61.111c-34.408-53.676-92.766-178.924 0.55-315.457-34.408 1.101-66.34 17.341-87.26 44.593-3.854 5.229-10.46 7.707-16.79 6.33-6.332-1.376-11.286-6.33-12.663-12.937-0.55-2.478-9.083-45.42-13.763-88.086-25.325 41.566-60.010 113.686-50.099 191.036zM449.239 250.081c5.78 1.101 10.46 5.229 12.387 10.735s0.826 11.561-2.753 15.966c-124.698 152.499-28.353 290.683-4.954 319.862h74.597v-627.613h-132.128v280.774c17.618-2.751 35.234-2.476 52.852 0.276zM755.613 926.691c27.527 3.028 54.502-9.084 71.020-31.381 10.185-13.763 15.689-30.555 15.689-47.621 0-20.645-6.33-40.74-18.167-57.807-33.307-48.172-120.842-160.207-213.057-160.207h-1.652c66.889 49.273 130.476 141.213 160.756 188.559 8.533 13.213 7.984 30.28-1.101 42.942-9.083 12.662-25.049 18.718-40.463 15.14-167.089-41.015-206.177-197.093-214.711-246.641h-34.408c4.954 61.111 38.537 269.488 276.094 297.015zM548.060 632.98c9.359 50.649 46.795 176.722 188.559 211.406 1.652 0.275 3.302 0 4.405-1.101 1.376-1.101 2.202-2.753 2.202-4.404 0-1.101-0.275-1.927-0.826-3.028-56.98-89.463-134.881-184.43-194.34-202.872zM100.748 789.608c-11.837 17.067-18.168 37.161-18.168 57.806 0 17.067 5.505 33.858 15.69 47.621 16.516 22.297 43.492 34.133 71.019 31.381 237.557-27.252 271.141-235.629 275.818-296.74h-34.408c-8.259 49.548-47.621 205.626-214.709 246.641-11.286 2.753-23.398 0.275-32.757-7.157-15.69-12.112-19.544-34.133-8.809-50.925 30.28-47.346 93.867-139.286 160.756-188.559h-1.376c-92.215 0-179.751 112.034-213.058 159.931zM376.842 632.98c-59.457 18.442-137.358 113.41-194.34 203.148-0.55 0.826-0.824 1.652-0.824 2.753 0 1.652 0.824 3.303 2.202 4.404 0.826 0.826 2.202 1.101 3.302 1.101 0.276 0 0.826 0 1.103-0.275 141.763-34.408 179.2-160.482 188.558-211.13zM33.032 596.644h265.909c-32.481-27.25-58.907-61.109-77.35-99.096h-188.56v99.096zM66.065-14.452v478.967h143.14c-3.854-12.662-6.883-25.6-8.533-38.538-17.067-134.33 80.102-248.293 84.233-252.972 3.028-3.577 7.707-5.78 12.662-5.78 1.927 0 3.854 0.276 5.78 1.103 6.332 2.476 10.735 8.533 10.735 15.415 1.101 32.756 4.68 65.239 10.46 97.169 11.837-9.634 24.774-17.067 39.089-22.572v-289.307h-281.050c-9.084 0-16.516 7.433-16.516 16.517zM858.839-14.452c0-9.085-7.433-16.517-16.517-16.517h-280.774v495.485h297.291v-83.681c-18.993-13.213-35.785-29.179-49.548-47.898-18.719 27.527-45.145 48.724-75.976 60.834-42.115 13.489-87.81-1.65-113.961-37.161-2.753-3.854-4.954-7.433-7.433-11.286-31.104-56.154-19.543-126.348 27.803-169.841l158.28-152.223c6.33-6.057 16.515-6.057 22.847 0l37.987 36.61v-74.322zM956.008 199.156l-146.717-140.938-146.719 141.213c-36.335 33.033-45.42 86.434-22.021 129.377 1.65 3.028 3.577 6.055 5.78 8.808 12.937 17.618 33.582 28.078 55.603 27.802 7.158 0 14.314-1.101 21.197-3.302 22.572-7.158 46.795-29.454 72.395-66.615 3.028-4.405 8.259-7.158 13.488-7.158 5.506 0 10.46 2.753 13.764 7.158 25.6 37.161 49.823 59.457 72.395 66.615 28.353 9.083 59.184-0.826 77.075-24.499 1.929-3.028 3.855-6.055 5.782-8.808 23.122-43.218 14.314-96.62-22.023-129.652z" />
<glyph unicode="&#xe92b;" glyph-name="44" d="M692 254.399c0 58.935-41.866 107.735-100 107.735-39.733 0-64.8-22.668-80-44.534-15.2 21.866-40.267 44.534-80 44.534-58.134 0-100-48.534-100-107.735 0-64.799 49.867-107.465 125.6-172 13.066-11.199 26.933-22.932 41.334-35.466 3.732-3.2 8.533-5.067 13.066-5.067 4.799 0 9.334 1.601 13.066 5.067 14.401 12.534 28 24.267 41.334 35.466 75.733 64.534 125.6 106.933 125.6 172zM512 88.533c-9.866 8.533-19.2 16.532-28.534 24.267-69.6 59.199-111.466 94.933-111.466 141.332 0 38.666 25.866 67.734 60 67.734 44.534 0 60-52.801 60.8-55.467 2.4-8.533 10.4-14.667 19.2-14.667 9.066 0 16.8 6.134 19.2 14.667 0.266 0.532 15.734 55.2 60.8 55.2 34.133 0 60-29.068 60-67.734 0-46.399-41.866-82.133-111.466-141.332-9.334-7.467-18.668-15.468-28.534-24.001zM281.061 522.134l80 40.001c9.866 5.067 13.867 17.067 9.068 26.933-5.067 9.866-17.067 13.867-26.935 9.068l-80-40.001c-9.866-5.067-13.867-17.067-9.066-26.933 4.799-10.134 16.8-14.133 26.933-9.068zM281.061 642.135l80 39.999c9.866 5.067 13.867 17.067 9.068 26.935-5.067 9.866-17.067 13.867-26.935 9.066l-80-39.999c-9.866-5.067-13.867-17.067-9.066-26.935 4.799-10.132 16.8-14.133 26.933-9.066zM282.127 765.068c2.934 0 6.134 0.8 9.068 2.133l60 30.134c9.866 5.067 13.867 17.067 9.066 26.933-5.065 9.867-17.067 13.867-26.933 9.067l-60-30.133c-9.866-5.067-13.867-17.066-9.068-26.933 3.468-7.2 10.4-11.201 17.867-11.201zM1019.73 592.266c-6.666 8.801-19.2 10.4-28 3.734l-139.733-107.201v62.933c0 41.866-16.266 81.067-45.867 110.667-22.134 22.134-34.133 51.2-34.133 82.4v95.2h20c10.933 0 19.999 9.067 19.999 20v80c0 10.933-9.066 20-19.999 20h-160c-10.935 0-20-9.067-20-20v-80c0-10.933 9.066-20 20-20h19.999v-95.467c0-31.2-12-60.534-34.133-82.4-0.266-0.268-0.799-0.8-1.067-1.333-21.866 24.532-51.999 40.8-84.799 45.599v21.6c0 10.935 9.066 20 20 20s19.999 9.068 19.999 20-9.066 20-19.999 20c-33.067 0-60.001-26.933-60.001-60.001v-21.333c-14.133-2.133-28-6.4-40.8-12.532-5.067 100.799-43.199 265.866-139.199 265.866-104.801 0-140.001-193.067-140.001-300v-171.467l-139.733 107.199c-8.8 6.668-21.333 5.067-28-3.732s-5.067-21.333 3.733-28l164.267-126.135v-482.133c0-10.933 9.066-19.999 19.999-19.999h640c10.935 0 20 9.066 20 19.999v482.401l164.267 126.133c8.533 6.666 10.134 19.2 3.2 28zM651.996 920h120.001v-40h-120.001v40zM451.997 648.001c17.333 13.066 38.134 19.999 60 19.999 31.468 0 61.334-15.2 80-39.999-13.066-23.467-20-49.601-20-76.534v-83.466h-119.999v180zM211.997 660c0 153.333 52.799 260 100 260 47.2 0 99.999-106.667 99.999-260v-192h-199.999v192zM811.996-23.999h-599.999v451.999h599.999v-451.999zM811.996 468h-199.999v83.466c0 32 13.066 61.332 34.133 82.4 29.6 29.6 45.867 68.801 45.867 110.667v95.467h39.999v-95.467c0-41.866 16.268-81.067 45.867-110.667 22.134-22.132 34.133-51.2 34.133-82.4v-83.466z" />
<glyph unicode="&#xe92c;" glyph-name="45" d="M682.667 469.334l-213.333 153.6c-8.533 4.266-17.067 8.533-25.6 4.266-8.533-8.533-17.067-17.066-17.067-25.6v-311.466c0-8.534 4.267-17.067 12.8-21.334 4.267 0 8.534-4.266 12.8-4.266s8.534 0 17.067 4.266l213.333 153.6c8.534 4.267 12.8 12.8 12.8 21.334-4.266 12.8-8.533 17.066-12.8 25.6zM512 960c-281.6 0-512-230.4-512-512s230.4-512 512-512c281.6 0 512 230.4 512 512s-226.133 512-512 512zM512 21.333c-234.667 0-426.667 187.734-426.667 426.667 0 234.667 192 426.667 426.667 426.667s426.667-192 426.667-426.667c0-238.933-187.734-426.667-426.667-426.667z" />
<glyph unicode="&#xe92d;" glyph-name="46" horiz-adv-x="1280" d="M352.003 960h-192.001c-88.401 0-160.001-72.001-160.001-160.001v-192.001c0-88.001 71.601-160.001 160.001-160.001h192.001c36 0 69.2 12 96.001 32v-192.003c0-158.797-129.201-288-288.002-288h-128.001c-17.6 0-32-14.4-32-32s14.4-32 32-32h128.001c194.001 0 352.002 158.003 352.002 352v512.005c0 88.001-71.6 160.001-160.001 160.001zM352.003 511.997h-192.001c-52.801 0-96.001 43.201-96.001 96.001v192.001c0 52.801 43.2 96.001 96.001 96.001h192.001c52.8 0 96.001-43.2 96.001-96.001v-192.001c0-52.8-43.201-96.001-96.001-96.001zM1119.968 960h-192c-88.397 0-160-72.001-160-160.001v-192.001c0-88.001 71.603-160.001 160-160.001h192c36.006 0 69.203 12 96.006 32v-192.003c0-158.797-129.203-288-288.006-288h-128c-17.6 0-32-14.4-32-32s14.4-32 32-32h128c194.003 0 352.006 158.003 352.006 352v512.005c0 88.001-71.603 160.001-160.006 160.001zM1119.968 511.997h-192c-52.8 0-96 43.201-96 96.001v192.001c0 52.801 43.2 96.001 96 96.001h192c52.806 0 96.006-43.2 96.006-96.001v-192.001c0-52.8-43.2-96.001-96.006-96.001z" />
<glyph unicode="&#xe92e;" glyph-name="47" d="M941.414 629.68c-45.42 0-82.58-37.163-82.58-82.58 0-45.42 37.161-82.582 82.58-82.582s82.58 37.163 82.58 82.582c0 45.418-37.161 82.58-82.58 82.58zM941.414 497.55c-27.252 0-49.55 22.298-49.55 49.55 0 27.25 22.298 49.548 49.55 49.548s49.548-22.298 49.548-49.548c0-27.252-22.296-49.55-49.548-49.55zM677.164 794.839c45.42 0 82.58 37.161 82.58 82.581s-37.161 82.581-82.58 82.581c-45.42 0-82.58-37.161-82.58-82.581s37.161-82.581 82.58-82.581zM677.164 926.968c27.252 0 49.548-22.297 49.548-49.548s-22.296-49.548-49.548-49.548c-27.252 0-49.548 22.297-49.548 49.548s22.296 49.548 49.548 49.548zM889.663 472.501c-1.101 1.927-2.753 3.854-4.405 5.229l-64.413 48.447-81.48 97.72c-3.028 3.579-7.431 5.78-11.836 6.057-4.405 0-9.085-1.652-12.387-4.954l-49.548-49.55c-6.057-6.055-6.607-15.966-0.826-22.572l107.080-122.218-67.441-94.418-62.486 25.049c-26.701 10.737-58.633 0.826-74.598-23.122l-85.608-128.826c-4.954-7.156-3.304-17.067 3.854-22.296l66.063-49.55c3.579-2.753 8.259-3.854 12.663-3.028s8.533 3.304 11.010 7.158l58.358 87.535 85.608-36.611-31.38-52.576c-6.881-11.836-10.735-25.049-10.735-38.538 0-14.037 3.854-27.802 11.286-39.914l73.772-117.815c3.028-4.954 8.533-7.707 14.037-7.707 2.478 0 4.956 0.55 7.433 1.652l66.065 33.031c4.128 2.203 7.433 6.057 8.533 10.46 1.101 4.68 0.275 9.359-2.202 13.489l-60.285 90.563 53.127 93.317 52.026-26.151c4.405-2.202 9.359-2.202 13.763-0.551 4.405 1.927 7.984 5.506 9.359 9.911l49.55 148.646c1.376 4.403 1.101 9.083-1.103 13.213l-82.855 148.92zM898.748 190.624l-36.886 18.444 29.177 102.4-31.655 9.083-32.481-113.684-64.964-113.963c-3.028-5.504-2.753-12.111 0.551-17.341l55.605-83.681-35.785-17.893-65.79 105.153c-4.128 6.607-6.33 14.314-6.33 22.296 0 7.707 2.202 15.14 6.055 21.746l41.291 68.543c2.476 4.128 3.028 9.083 1.65 13.488-1.376 4.403-4.954 8.257-9.083 10.185l-115.613 49.548c-2.202 0.826-4.405 1.376-6.607 1.376-5.506 0-10.735-2.753-13.764-7.433l-56.429-84.507-39.639 29.73 77.075 115.337c7.433 11.011 22.298 15.691 34.685 10.737l74.598-29.73c7.156-2.753 15.14-0.55 19.543 5.78l82.58 115.613c4.405 6.332 4.13 14.59-1.101 20.371l-105.428 120.567 25.875 25.875 71.020-85.333c0.826-1.101 1.652-1.927 2.753-2.753l63.312-47.346 77.35-139.286-41.564-123.32zM115.616 464.519h181.677c5.231 0 10.185 2.476 13.213 6.607l90.289 120.567 48.997-28.078h-36.886c-9.083 0-16.515-7.433-16.515-16.515v-66.065c0-9.085 7.433-16.515 16.515-16.515h144.517c38.813 0 70.193 31.655 70.193 70.193 0 23.673-11.837 45.42-31.38 58.631l-63.037 42.117 30.28 60.559 17.893-26.701 49.548-66.065c2.753-3.854 7.158-6.332 12.112-6.607s9.359 1.376 12.938 4.68l49.548 49.548c5.78 5.78 6.332 14.59 1.652 21.195l-82.306 115.338-66.065 99.097c-3.028 4.68-8.257 7.432-13.763 7.432h-165.161c-5.782 0-11.011-3.028-14.039-7.707l-82.58-132.129c-4.68-7.433-2.478-17.618 4.954-22.572l39.088-26.15-88.636-141.764h-123.046c-9.084 0-16.516-7.433-16.516-16.515v-66.065c0-9.085 7.432-16.515 16.516-16.515zM132.132 530.582h115.613c5.78 0 11.011 3.028 14.039 7.707l165.161 264.259-28.076 17.617-54.229-86.71-25.049 16.792 69.367 110.658h147.268l61.385-92.216 74.598-104.327-26.151-26.15-37.712 50.099-33.031 49.548c-3.304 4.954-8.533 7.707-14.865 7.433-5.78-0.276-11.011-3.854-13.764-9.085l-49.548-99.096c-3.854-7.433-1.376-16.517 5.506-21.197l75.148-50.099c10.46-6.881 16.517-18.442 16.517-31.104 0-20.646-16.792-37.163-37.163-37.163h-127.724v33.033h82.58c7.433 0 14.039 4.954 15.966 12.387 1.927 7.158-1.377 14.865-7.707 18.719l-115.613 66.065c-7.158 4.128-16.517 2.202-21.472-4.405l-94.141-125.798h-156.904v33.033zM576.138 422.675c-2.753 5.506-8.533 8.808-14.59 8.808h-545.032c-9.084 0-16.516-7.433-16.516-16.515v-462.452c0-9.083 7.432-16.515 16.516-16.515h231.225c5.506 0 10.737 2.753 13.764 7.156l313.807 462.452c3.302 5.231 3.579 11.561 0.826 17.067zM238.933-30.967h-205.901v429.418h497.41l-291.509-429.418z" />
<glyph unicode="&#xe92f;" glyph-name="48" horiz-adv-x="1058" d="M52.569-64h87.615c14.785 0 29.023 6.298 38.88 17.522h439.443c25.738 0 50.927 7.119 72.83 20.535l328.282 199.873c28.476 17.249 39.427 53.39 25.463 83.507-13.964 30.392-48.463 45.177-80.222 34.499l-176.326-58.592v343.888l87.067-86.246c17.524-17.249 45.725-17.249 63.247 0l99.388 98.294c16.428 16.154 17.524 42.438 2.739 59.96l-225.062 267.226c-23.272 27.653-57.498 43.534-93.913 43.534h-322.533c-36.14 0-70.639-15.88-93.913-43.534l-225.060-266.952c-14.785-17.797-13.69-43.808 2.738-59.962l99.388-98.292c17.524-17.249 45.725-17.249 63.247 0l87.067 86.245v-240.393c-31.213 24.093-69.27 37.236-108.698 37.236h-34.772c-7.393 20.808-27.106 35.046-49.283 35.046h-87.615c-29.022-0.275-52.569-23.822-52.569-52.844v-367.983c0-29.022 23.547-52.569 52.569-52.569zM671.077 924.954c-19.988-42.712-62.974-70.092-110.341-70.092-47.092 0-90.080 27.38-110.339 70.092h220.681zM221.228 515.901c-3.833-3.833-10.131-3.833-13.964 0l-99.388 98.294c-3.559 3.285-3.559 8.76-0.548 12.593l225.060 266.953c16.701 19.713 41.071 31.213 67.081 31.213h14.785c11.774-51.2 72.83-105.138 146.756-105.138 73.924 0 134.982 53.938 146.755 105.138h14.785c25.737 0 50.379-11.499 67.081-31.213l225.060-266.953c3.012-3.558 2.739-9.035-0.546-12.593l-99.389-98.294c-3.833-3.833-10.131-3.833-13.962 0l-112.258 110.614v79.401c0 9.583-7.939 17.522-17.522 17.522s-17.524-7.939-17.524-17.522v-484.347l-112.804-37.509c-5.475-1.917-10.952-2.739-16.701-2.739h-10.131c8.214 22.726 6.025 48.189-6.571 68.997l-1.644 2.464c-19.166 31.486-53.117 50.927-90.078 50.927h-91.723c-19.166 0-38.332 4.106-56.127 11.498v390.709c0 9.583-7.941 17.522-17.524 17.522s-17.522-7.939-17.522-17.522v-79.401l-111.435-110.614zM313.223 307.816c9.31-7.393 19.441-13.964 30.118-19.166l0.548-0.273c24.916-12.595 52.296-19.166 80.224-19.441h91.721c24.641 0 47.367-12.868 60.235-33.951l1.644-2.464c9.583-15.881 8.487-36.14-2.739-50.925h-106.779c-34.499 0-68.449-10.131-97.198-29.57l-12.868-8.489c-5.204-3.558-8.489-9.583-7.941-15.881 0.275-6.296 4.108-12.046 9.858-14.785 5.75-2.737 12.32-2.19 17.522 1.37l12.868 8.487c22.999 15.333 50.104 23.547 77.759 23.547h155.79c9.31 0 18.891 1.642 27.653 4.379l324.449 108.15c12.595 4.108 26.284-0.273 34.225-10.677 5.202-6.845 7.119-15.607 5.475-24.095-1.642-8.487-6.845-15.881-13.964-20.262l-328.556-199.871c-16.428-10.131-35.319-15.333-54.76-15.333h-425.754v350.461h31.486c32.309 0 63.795-10.952 88.984-31.213zM35.046 356.552c0 9.583 7.94 17.522 17.523 17.522h87.615c9.583 0 17.523-7.939 17.523-17.522v-367.983c0-9.583-7.94-17.522-17.523-17.522h-87.615c-9.583 0-17.523 7.939-17.523 17.522v367.983z" />
<glyph unicode="&#xe930;" glyph-name="49" horiz-adv-x="905" d="M432.399 11.762c6.808-6.214 17.166-6.214 23.974 0l88.194 80.5c15.389 13.614 24.267 32.85 24.267 53.272 0 20.125-8.878 39.066-23.675 52.383-28.116 24.564-68.663 28.116-100.625 8.88-31.962 19.236-72.805 15.684-100.623-8.88-15.094-13.317-23.677-32.258-23.677-52.383 0.295-20.422 8.878-39.658 24.267-53.272l87.898-80.5zM367.29 171.578c18.645 15.981 46.169 15.981 64.814 0 6.806-6.216 17.166-6.216 23.972 0 18.645 15.981 46.169 15.981 64.814 0 7.695-6.511 12.134-15.981 12.134-26.044-0.297-10.359-4.736-20.125-12.727-26.933l-76.356-69.548-76.356 69.548c-7.991 6.808-12.43 16.573-12.725 26.933 0.592 9.766 5.031 19.236 12.43 26.044zM815.061 417.517c-2.959 5.919-9.173 9.766-15.981 9.766h-232.026c3.847 29.3-1.777 58.895-15.983 84.644l98.258 129.626 108.614 18.053 76.948 153.897v146.497h-146.202l-73.1-36.402-258.072-55.343-38.178-210.718 22.789-98.553c-41.73-30.188-63.334-80.795-56.823-131.995h-196.513c-6.807 0-13.022-3.847-15.982-9.767l-71.029-142.058c-2.664-5.622-2.368-12.134 0.888-17.164 3.256-5.328 8.879-8.288 15.094-8.288h53.272v-295.953c0-9.767 7.991-17.758 17.757-17.758h710.288c9.767 0 17.758 7.991 17.758 17.758v295.953h53.272c6.214 0 11.837 3.256 15.094 8.288 3.255 5.327 3.552 11.837 0.887 17.461l-71.030 142.058zM388.297 838.659l237.058 50.904 71.325 34.923h102.4v-102.4l-65.109-130.22-104.472-17.461-119.566-158.039c-3.847-5.328-9.47-8.583-15.981-9.767-7.694-0.887-15.389 1.184-21.605 5.623-5.623 3.847-9.173 9.767-10.358 16.278s0.592 13.317 4.439 18.644l123.412 163.367-47.648 71.917h-113.35l-20.717-124.302 11.839-71.325c-15.686-0.887-31.075-4.142-45.578-9.766l-18.941 81.388 32.852 180.235zM455.182 591.537l-11.245 66.589 14.797 88.788h64.222l23.381-34.924-91.155-120.453zM371.427 536.194c17.463 10.655 37.883 15.686 58.303 15.094-7.991-24.859 0.592-51.792 21.605-67.181 11.247-8.286 24.861-13.022 39.066-13.022 2.959 0 6.216 0.295 9.175 0.592 9.47 1.48 18.645 5.327 26.341 10.95 18.053-46.464 1.183-99.441-40.842-126.669h-116.902c-30.78 20.125-48.833 54.456-47.945 90.858 0 36.995 19.533 70.733 51.2 89.378zM781.324-28.486h-674.775v278.197h674.775v-278.197zM46.47 285.225l53.272 106.544h194.738c5.327-12.727 12.43-24.859 21.012-35.514h-84.644v-35.514h426.173v35.514h-120.453c8.583 10.655 15.686 22.787 21.012 35.514h230.253l53.272-106.544h-794.636z" />
</font>
</defs>
</svg>
